<?xml version="1.0" encoding="UTF-8" standalone="no"?>
<svg
   xmlns:dc="http://purl.org/dc/elements/1.1/"
   xmlns:cc="http://creativecommons.org/ns#"
   xmlns:rdf="http://www.w3.org/1999/02/22-rdf-syntax-ns#"
   xmlns:svg="http://www.w3.org/2000/svg"
   xmlns="http://www.w3.org/2000/svg"
   xmlns:sodipodi="http://sodipodi.sourceforge.net/DTD/sodipodi-0.dtd"
   xmlns:inkscape="http://www.inkscape.org/namespaces/inkscape"
   version="1.1"
   id="Layer_1"
   x="0px"
   y="0px"
   width="100px"
   height="42.591px"
   viewBox="0 0 100 42.591"
   enable-background="new 0 0 100 42.591"
   xml:space="preserve"
   inkscape:version="0.48.3.1 r9886"
   sodipodi:docname="carinsurancecontract.svg"><metadata
   id="metadata13"><rdf:RDF><cc:Work
       rdf:about=""><dc:format>image/svg+xml</dc:format><dc:type
         rdf:resource="http://purl.org/dc/dcmitype/StillImage" /><dc:title></dc:title></cc:Work></rdf:RDF></metadata><defs
   id="defs11" /><sodipodi:namedview
   pagecolor="#ffffff"
   bordercolor="#666666"
   borderopacity="1"
   objecttolerance="10"
   gridtolerance="10"
   guidetolerance="10"
   inkscape:pageopacity="0"
   inkscape:pageshadow="2"
   inkscape:window-width="640"
   inkscape:window-height="480"
   id="namedview9"
   showgrid="false"
   inkscape:zoom="1.13"
   inkscape:cx="112.13203"
   inkscape:cy="-41.164479"
   inkscape:window-x="208"
   inkscape:window-y="241"
   inkscape:window-maximized="0"
   inkscape:current-layer="Layer_1" />



<g
   id="g3033"><path
     id="path3"
     d="M19.525,24.44c-5,0-9.069,4.075-9.069,9.089c0,4.986,4.069,9.062,9.069,9.062c5.013,0,9.088-4.076,9.088-9.062  C28.613,28.515,24.538,24.44,19.525,24.44z M19.525,38.412c-2.676,0-4.876-2.201-4.876-4.883c0-2.695,2.201-4.896,4.876-4.896  c2.695,0,4.889,2.201,4.889,4.896C24.414,36.21,22.22,38.412,19.525,38.412z" /><path
     id="path5"
     d="M80.632,24.44c-5.007,0-9.076,4.075-9.076,9.089c0,4.986,4.069,9.062,9.076,9.062c5.006,0,9.068-4.076,9.068-9.062  C89.7,28.515,85.638,24.44,80.632,24.44z M80.632,38.412c-2.695,0-4.89-2.201-4.89-4.883c0-2.695,2.194-4.896,4.89-4.896  s4.889,2.201,4.889,4.896C85.521,36.21,83.327,38.412,80.632,38.412z" /><path
     id="path7"
     d="M98.249,26.732c0-8.815-5.495-9.87-5.495-9.87c-8.079-1.133-21.999-1.719-21.999-1.719C69.479,12.93,63.581,0,60.149,0  c-1.158,0-25.781,0-30.143,0c-4.368,0-11.523,12.604-13.092,15.456c0,0-5.482,0.938-8.066,1.537c-1.432,0.325-5.41,0.403-5.41,11.51  H0v5.026h8.366c0-6.172,5.007-11.172,11.159-11.172c6.178,0,11.172,5,11.172,11.172H69.46c0-6.172,4.986-11.172,11.172-11.172  c6.165,0,11.165,5,11.165,11.172H100v-6.797H98.249z M44.746,14.284H27.344c2.35-7.331,6.712-12.565,8.555-12.565  c2.311,0,8.848,0,8.848,0V14.284z M47.988,14.284V1.719c0,0,8.978,0,11.289,0c2.324,0,7.422,10.638,8.854,13.359L47.988,14.284z" /><g
     transform="matrix(0.84066977,-0.6614495,0.6614495,0.84066977,-32.731792,-7.837068)"
     id="g3028"><path
       inkscape:connector-curvature="0"
       id="path3018"
       transform="matrix(0.78145696,0,0,0.78145696,22.18543,29.162609)"
       d="M 34.90625,-28.9375 C 16.857911,-21.12517 3.730483,-1.1114997 3.0625,19.5 c 4.291983,-4.07828 9.985259,-6.40625 15.90625,-6.40625 5.340025,0 10.486038,1.919581 14.59375,5.28125 l 0,11.71875 4.03125,0 0,-11.71875 c 4.110271,-3.364229 9.282415,-5.28125 14.625,-5.28125 5.922271,0 11.615547,2.33053 15.90625,6.40625 C 67.450619,-1.359754 54.054462,-21.775237 36.28125,-28.9375 l 0,48.46875 -0.1875,0.3125 -0.5,0.53125 -0.5,-0.53125 -0.1875,-0.3125 0,-48.46875 z" /><path
       inkscape:connector-curvature="0"
       d="m 51.006,5.589 c 0.189,0.005 0.381,0.006 0.57,0.012 V 4.714 C 51.576,3.843 50.87,3.138 50,3.138 c -0.87,0 -1.576,0.706 -1.576,1.576 V 5.602 C 48.633,5.596 48.844,5.594 49.054,5.588 26.15,6 6.288,21.26 0,43.199 c 3.164,-2.458 7.029,-3.795 11.055,-3.795 4.649,0 9.123,1.839 12.481,5.055 C 24.04,27.925 34.583,11.852 49.08,5.587 49.387,5.579 49.692,5.567 50,5.567 c 0.326,0 0.649,0.012 0.974,0.021 14.253,5.776 24.986,22.167 25.494,38.87 3.357,-3.215 7.83,-5.055 12.479,-5.055 4.024,0 7.889,1.336 11.053,3.794 C 93.717,21.279 73.885,6.026 51.006,5.589 z"
       id="path3020" /></g></g></svg>