<svg xmlns="http://www.w3.org/2000/svg" xmlns:xlink="http://www.w3.org/1999/xlink" version="1.1" id="Calque_1" x="0px" y="0px" width="100px" height="100px" viewBox="0 0 100 100" enable-background="new 0 0 100 100" xml:space="preserve">
<g>
	<path d="M82.087,0H17.914h-4.125v4.125v91.904v4.127h4.125h64.173h4.124v-4.127V4.125V0H82.087z M82.087,96.029H17.914V4.125   h64.173V96.029z"/>
	<polygon points="51.845,85.771 39.369,73.296 36.452,76.213 51.685,91.446 51.845,91.287 52.004,91.446 76.474,66.975    73.558,64.059  "/>
	<rect x="23.525" y="13.981" width="52.948" height="4.125"/>
	<rect x="23.525" y="21.085" width="52.948" height="4.125"/>
	<rect x="23.525" y="28.19" width="52.948" height="4.125"/>
	<rect x="23.525" y="35.295" width="52.948" height="4.125"/>
	<rect x="23.525" y="42.4" width="52.948" height="4.125"/>
	<rect x="23.525" y="49.505" width="35.754" height="4.126"/>
</g>
</svg>