<svg xmlns="http://www.w3.org/2000/svg" xmlns:xlink="http://www.w3.org/1999/xlink" version="1.1" id="Layer_1" x="0px" y="0px" width="100px" height="100px" viewBox="0 0 100 100" enable-background="new 0 0 100 100" xml:space="preserve">
<g>
	<path d="M89.971,2h-80c-3.59,0-6.5,2.91-6.5,6.5v82c0,3.59,2.91,6.5,6.5,6.5h80c3.59,0,6.5-2.91,6.5-6.5v-82   C96.471,4.91,93.561,2,89.971,2z M95.471,90.5c0,3.037-2.463,5.5-5.5,5.5h-80c-3.038,0-5.5-2.463-5.5-5.5v-82   c0-3.038,2.462-5.5,5.5-5.5h80c3.037,0,5.5,2.462,5.5,5.5V90.5z"/>
	<path d="M85.535,7H57.971v7.669c6,2.947,9.359,8.744,9.359,15.402c0,9.632-7.719,17.469-17.352,17.469s-17.396-7.837-17.396-17.469   c0-6.659,3.388-12.456,9.388-15.402V7H14.277c-3.3,0-6.306,2.95-6.306,6.25v73.588c0,3.3,3.006,6.162,6.306,6.162h71.258   c3.299,0,6.436-2.862,6.436-6.162V13.25C91.971,9.95,88.834,7,85.535,7z"/>
	<path d="M48.999,32.709V45h2V32.709c1-0.405,1.796-1.429,1.796-2.638c0-1.563-1.281-2.828-2.845-2.828   c-1.563,0-2.804,1.265-2.804,2.828C47.146,31.281,47.999,32.305,48.999,32.709z"/>
	<path d="M60.59,30.5c0,0.276,0.225,0.5,0.5,0.5h3.986c0.275,0,0.5-0.224,0.5-0.5s-0.225-0.5-0.5-0.5H61.09   C60.814,30,60.59,30.224,60.59,30.5z"/>
	<path d="M39.351,30.5c0-0.276-0.224-0.5-0.5-0.5h-3.985c-0.276,0-0.5,0.224-0.5,0.5s0.224,0.5,0.5,0.5h3.985   C39.127,31,39.351,30.776,39.351,30.5z"/>
	<path d="M49.971,19.452c0.276,0,0.5-0.224,0.5-0.5v-3.985c0-0.276-0.224-0.5-0.5-0.5s-0.5,0.224-0.5,0.5v3.985   C49.471,19.229,49.694,19.452,49.971,19.452z"/>
	<path d="M57.832,22.71c0.128,0,0.256-0.049,0.354-0.146l2.82-2.818c0.195-0.195,0.195-0.512,0-0.707s-0.512-0.195-0.707,0   l-2.82,2.818c-0.195,0.195-0.195,0.512,0,0.707C57.576,22.661,57.704,22.71,57.832,22.71z"/>
	<path d="M39.289,41.251c0.128,0,0.256-0.049,0.354-0.146l2.82-2.818c0.195-0.195,0.195-0.512,0-0.707s-0.512-0.195-0.707,0   l-2.82,2.818c-0.195,0.195-0.195,0.512,0,0.707C39.033,41.203,39.161,41.251,39.289,41.251z"/>
	<path d="M60.297,41.107c0.098,0.098,0.226,0.146,0.354,0.146s0.256-0.049,0.354-0.146c0.195-0.195,0.195-0.512,0-0.707l-2.818-2.82   c-0.195-0.195-0.512-0.195-0.707,0c-0.195,0.195-0.195,0.512,0,0.707L60.297,41.107z"/>
	<path d="M38.937,19.036c-0.195,0.195-0.195,0.512,0,0.707l2.818,2.82c0.098,0.098,0.226,0.146,0.354,0.146s0.256-0.049,0.354-0.146   c0.195-0.195,0.195-0.512,0-0.707l-2.818-2.82C39.449,18.841,39.132,18.841,38.937,19.036z"/>
</g>
</svg>