<svg xmlns="http://www.w3.org/2000/svg" xmlns:xlink="http://www.w3.org/1999/xlink" version="1.1" x="0px" y="0px" width="100px" height="100px" viewBox="0 0 100 100" enable-background="new 0 0 100 100" xml:space="preserve">
<g id="Captions">
	<rect x="-192" width="185" height="99"/>
	<rect y="-36" width="100" height="30"/>
	<text transform="matrix(1 0 0 1 66 -19.5)" fill="#000000" font-family="'Helvetica'" font-size="2.4">http://thenounproject.com</text>
	<text transform="matrix(1 0 0 1 7.166 -24.5)"><tspan x="0" y="0" fill="#000000" font-family="'Helvetica-Bold'" font-size="6.1578">The Noun Project</tspan><tspan x="1.12" y="4.8" fill="#000000" font-family="'Helvetica-Bold'" font-size="4">Icon Template</tspan></text>
	<text transform="matrix(1 0 0 1 -178.5 10.5)" fill="#000000" font-family="'Helvetica-Bold'" font-size="6.1578">Reminders</text>
	<line fill="#000000" stroke="#FFFFFF" stroke-miterlimit="10" x1="8" y1="-14.5" x2="18" y2="-14.5"/>
	<line fill="#000000" stroke="#FFFFFF" stroke-miterlimit="10" x1="-179" y1="16.5" x2="-162" y2="16.5"/>
	<g>
		<g>
			<g>
				<rect x="-170.802" y="31.318" fill="#000000" width="8.721" height="8.642"/>
				<path fill="#000000" d="M-164.455,42.312h4.747v-4.703h-4.747V42.312z M-159.266,42.749h-5.63V37.17h5.63V42.749      L-159.266,42.749z M-166.221,44.062h8.279v-8.203h-8.279V44.062L-166.221,44.062z M-157.5,44.5h-9.163v-9.079h9.163V44.5      L-157.5,44.5z"/>
				<polygon fill="#000000" points="-166.149,44.133 -166.292,43.991 -158.013,35.787 -157.871,35.929     "/>
			</g>
		</g>
	</g>
	<rect x="-179" y="58" fill="none" width="35" height="32.5"/>
	<text transform="matrix(1 0 0 1 -179 60.1572)"><tspan x="0" y="0" fill="#000000" font-family="'Helvetica-Bold'" font-size="3">Strokes</tspan><tspan x="0" y="5" fill="#000000" font-family="'Helvetica'" font-size="2.4">Try to keep strokes at 4px</tspan><tspan x="0" y="10" fill="#000000" font-family="'Helvetica'" font-size="2.4">Minimum stroke weight is 2px</tspan><tspan x="0" y="14.5" fill="#000000" font-family="'Helvetica'" font-size="2.4">For thicker strokes use even </tspan><tspan x="0" y="17.5" fill="#000000" font-family="'Helvetica'" font-size="2.4">numbers: 6px, 8px etc.</tspan><tspan x="0" y="22" fill="#000000" font-family="'Helvetica-Bold'" font-size="2.4">Remember to expand strokes </tspan><tspan x="0" y="25" fill="#000000" font-family="'Helvetica-Bold'" font-size="2.4">before saving as an SVG </tspan></text>
	<rect x="-136.5" y="58" fill="none" width="35" height="32.5"/>
	<text transform="matrix(1 0 0 1 -136.5 60.1572)"><tspan x="0" y="0" fill="#000000" font-family="'Helvetica-Bold'" font-size="3">Size</tspan><tspan x="0" y="5" fill="#000000" font-family="'Helvetica'" font-size="2.4">Cannot be wider or taller than </tspan><tspan x="0" y="8.5" fill="#000000" font-family="'Helvetica'" font-size="2.4">100px (artboard size)</tspan><tspan x="0" y="13.5" fill="#000000" font-family="'Helvetica'" font-size="2.4">Scale your icon to fill as much of </tspan><tspan x="0" y="16.5" fill="#000000" font-family="'Helvetica'" font-size="2.4">the artboard as possible</tspan></text>
	<rect x="-94" y="58" fill="none" width="35" height="32.5"/>
	<text transform="matrix(1 0 0 1 -94 60.1572)"><tspan x="0" y="0" fill="#000000" font-family="'Helvetica-Bold'" font-size="3">Ungroup</tspan><tspan x="0" y="5" fill="#000000" font-family="'Helvetica'" font-size="2.4">If your design has more than one </tspan><tspan x="0" y="8" fill="#000000" font-family="'Helvetica'" font-size="2.4">shape, make sure to ungroup</tspan></text>
	<rect x="-50" y="58" fill="none" width="35" height="32.5"/>
	<text transform="matrix(1 0 0 1 -50 60.1572)"><tspan x="0" y="0" fill="#000000" font-family="'Helvetica-Bold'" font-size="3">Save as</tspan><tspan x="0" y="5" fill="#000000" font-family="'Helvetica'" font-size="2.4">Save as .SVG and make sure </tspan><tspan x="0" y="8" fill="#000000" font-family="'Helvetica'" font-size="2.4">&#8220;Use Artboards&#8221; is checked</tspan></text>
	<text transform="matrix(1.0074 0 0 1 -125.542 30.5933)" fill="#000000" font-family="'Helvetica'" font-size="2.5731">100px</text>
	<text transform="matrix(1.0074 0 0 1 -41 39)" fill="#000000" font-family="'Helvetica-Bold'" font-size="5.1462">.SVG</text>
	<rect x="-126.514" y="34.815" fill="#000000" width="10.261" height="10.185"/>
	<rect x="-126.477" y="31.766" fill="#000000" width="0.522" height="2.337"/>
	<rect x="-116.812" y="31.766" fill="#000000" width="0.523" height="2.337"/>
	<rect x="-127" y="32.337" fill="#000000" width="11.233" height="0.572"/>
	<g>
		<rect x="-83.805" y="33.844" fill="#000000" width="10.305" height="10.156"/>
		<rect x="-76.809" y="28.707" fill="#000000" width="3.308" height="3.261"/>
	</g>
	<rect x="-178.5" y="22.5" fill="#000000" stroke="#FFFFFF" stroke-miterlimit="10" width="30" height="30"/>
	<rect x="-136.5" y="22.5" fill="#000000" stroke="#FFFFFF" stroke-miterlimit="10" width="30" height="30"/>
	<rect x="-93.5" y="22.5" fill="#000000" stroke="#FFFFFF" stroke-miterlimit="10" width="30" height="30"/>
	<rect x="-49.5" y="22.5" fill="#000000" stroke="#FFFFFF" stroke-miterlimit="10" width="30" height="30"/>
</g>
<g id="Your_Icon">
	<g>
		<polygon fill="#000000" points="-15.043,344.492 -15.043,329.832 -13.725,330.439 -13.725,344.492   "/>
		<g>
			<path fill="#000000" d="M0.676,329.512c-3.807,0-9.486,0.729-10.843,0.908v1.568l10.843,5.363l10.844-5.365v-1.566     C9.607,330.166,4.908,329.512,0.676,329.512z"/>
			<path fill="#000000" d="M-10.561,328.85c0.068-0.008,6.863-0.955,11.236-0.955c4.375,0,11.172,0.947,11.239,0.955l0.299,0.043     v1.828l4.24-2.1l-15.778-8.275l-15.775,8.275l4.24,2.1v-1.828L-10.561,328.85z"/>
		</g>
		<path fill="#000000" d="M10.921,345.074v-13.695c0,0-6.216-0.904-10.245-0.904c-4.027,0-10.24,0.904-10.24,0.904v13.834h0.828    c2.519-1.523,6.044-2.471,9.945-2.471C4.989,342.742,8.417,343.633,10.921,345.074z"/>
	</g>
	<g>
		<g>
			<path d="M321.153,154.871h-4.899v29.212h-5.782v-29.212h-8.768v29.212h-5.784v-29.212h-42.585v29.212h-5.786v-29.212h-6.346     v29.212h-5.78v-29.212h-7.278v33.223h41.02v-18.609c0-0.402,0.572-0.732,1.277-0.732h8.365c0.709,0,1.282,0.33,1.282,0.732     v18.609h41.064V154.871z"/>
		</g>
		<rect x="228.104" y="189.845" width="93.049" height="3.285"/>
		<rect x="226" y="150.305" width="97.299" height="3.287"/>
		<polygon points="226.267,153.262 274.648,139 323.034,153.262   "/>
	</g>
	<g>
		<path d="M314.346,98.65c0-0.725-0.097-1.441-0.279-2.147c-0.463,2.032-1.793,3.963-3.976,5.759    c-2.44,2.009-5.891,3.794-10.249,5.31c-8.768,3.052-20.393,4.728-32.734,4.728s-23.966-1.676-32.734-4.728    c-4.361-1.516-7.809-3.301-10.249-5.31c-2.515-2.065-3.698-3.372-3.889-5.579C220.082,97.332,220,97.989,220,98.65v24.964    c0,1.986,0.709,3.902,2.027,5.71v-9.475c0-0.533,0.19-0.967,0.422-0.967h4.334c0.237,0,0.428,0.434,0.428,0.967v14.206    c1.194,0.795,2.524,1.553,3.973,2.259v-9.893c0-0.444,0.19-0.806,0.428-0.806h4.334c0.235,0,0.426,0.361,0.426,0.806v12.073    c1.262,0.452,2.584,0.878,3.962,1.277v-10.374c0-0.43,0.19-0.78,0.426-0.78h4.335c0.233,0,0.423,0.351,0.423,0.78v11.674    c1.557,0.336,3.164,0.639,4.813,0.896v-10.011c0-0.441,0.19-0.796,0.424-0.796h4.335c0.237,0,0.426,0.354,0.426,0.796v10.702    c1.472,0.153,2.971,0.28,4.498,0.373V131.9c0-0.41,0.188-0.739,0.424-0.739h4.334c0.234,0,0.425,0.329,0.425,0.739v11.345    c0.657,0.012,1.315,0.015,1.979,0.015c0.801,0,1.599-0.007,2.388-0.021v-10.718c0-0.497,0.192-0.9,0.426-0.9h4.334    c0.235,0,0.426,0.403,0.426,0.9v10.489c1.499-0.101,2.976-0.231,4.425-0.388V131.09c0-0.533,0.19-0.975,0.426-0.975h4.334    c0.235,0,0.424,0.441,0.424,0.975v10.83c1.632-0.27,3.221-0.568,4.759-0.911v-11.416c0-0.541,0.19-0.975,0.424-0.975h4.336    c0.233,0,0.426,0.434,0.426,0.975v10.098c1.994-0.587,3.872-1.232,5.622-1.935h-0.863V125.31c0-0.407,0.19-0.739,0.428-0.739    h4.334c0.233,0,0.424,0.332,0.424,0.739v10.452c1.561-0.821,2.965-1.703,4.197-2.625V119.29c0-0.501,0.19-0.904,0.426-0.904h4.333    c0.233,0,0.424,0.403,0.424,0.904v7.756c0.475-1.112,0.721-2.263,0.721-3.432V98.65z"/>
		<path d="M226.143,99.809c2.117,1.743,5.325,3.387,9.274,4.761c3.475,1.21,7.428,2.192,11.709,2.936    c-6.39-1.886-10.429-4.829-10.429-8.638c0-7.014,13.644-12.697,30.478-12.697c16.83,0,30.476,5.684,30.476,12.697    c0,3.775-3.959,6.691-10.243,8.581c4.162-0.735,8.002-1.699,11.39-2.879c3.95-1.374,7.158-3.018,9.275-4.761    c1.99-1.636,3.892-5.695,3.892-7.335C305.746,84.646,288.042,79,267.175,79c-21.483,0-39.607,5.982-45.308,14.165    C222.158,94.942,224.29,98.288,226.143,99.809z"/>
	</g>
	<g>
		<path fill="#000000" d="M-17.084,232.037c-0.973-1.465-2.578-2.965-4.594-4.152l-2.329,4.152H-17.084z"/>
		<path fill="#000000" d="M-53.535,231.408c0,0.01,0,0.02,0,0.027c0,0,8.459,1.311,11.093,1.311s11.555-1.311,11.555-1.311    c0-0.014-0.001-0.023-0.001-0.035c0.184-0.027,0.35-0.051,0.494-0.07c-0.137-2.439-1.012-4.738-2.515-6.641    c-0.089-0.029-0.181-0.057-0.271-0.086c-2.068-2.729-5.344-4.494-9.032-4.494c-3.11,0-5.927,1.256-7.974,3.285    c-0.057,0.008-0.111,0.016-0.167,0.023c-0.077,0.072-0.153,0.146-0.229,0.223c-2.075,2.076-3.286,4.787-3.448,7.695    C-53.885,231.357-53.719,231.383-53.535,231.408z"/>
		<path fill="#000000" d="M-62.096,233.166c1.089,0.895,2.736,1.74,4.765,2.447c4.33,1.504,10.102,2.336,16.254,2.336    c0.165-0.004,3.195-0.088,6.499-0.744c4.316-0.857,7.144-2.281,8.176-4.119c1.461-2.605,2.548-4.541,3.332-5.938    c-2.029-0.959-4.366-1.58-6.833-1.58c-0.179,0-0.356,0.004-0.534,0.012c1.068,1.947,1.637,4.145,1.637,6.43v0.68l-0.673,0.098    c-0.408,0.061-10.036,1.471-12.995,1.471c-2.963,0-12.1-1.41-12.486-1.471l-0.666-0.104v-0.674c0-2.99,0.972-5.83,2.767-8.16    c-5.605,1.164-9.906,3.463-11.582,6.277C-64.007,231.105-62.906,232.498-62.096,233.166z"/>
		<path fill="#000000" d="M-54.046,253.771c2.858,0.699,6.106,1.096,9.552,1.096c8.321,0,15.496-2.311,18.788-5.639    c5.779-0.691,9.658-3.211,9.658-6.215v-8.137c0-0.398-0.081-0.824-0.233-1.266h-8.611c-0.045,0.08-0.092,0.162-0.138,0.244    c-1.284,2.287-4.4,3.936-9.265,4.898c-3.513,0.695-6.626,0.768-6.758,0.77h-0.008h-0.008c-6.326,0-12.286-0.861-16.779-2.424    c-2.234-0.775-4-1.689-5.249-2.717c-1.037-0.854-1.697-1.766-1.974-2.725c-0.087,0.361-0.131,0.729-0.131,1.102v12.369    c0,3.633,4.23,6.801,10.499,8.475"/>
		<path fill="#000000" d="M-54.702,253.771h0.656c-0.222-0.055-0.44-0.111-0.656-0.168V253.771z"/>
	</g>
	<g>
		<rect x="177.488" y="152.938" width="33.316" height="2.944"/>
		<path d="M179.356,121.354v30.107h29.601v-30.107H179.356z M188.314,149.409h-4.289v-22.62c0-0.735,0.158-1.338,0.353-1.338h3.581    c0.195,0,0.355,0.603,0.355,1.338V149.409z M196.302,149.409h-4.286v-22.62c0-0.735,0.154-1.338,0.349-1.338h3.584    c0.195,0,0.354,0.603,0.354,1.338V149.409z M204.29,149.409h-4.286v-22.62c0-0.735,0.155-1.338,0.354-1.338h3.582    c0.193,0,0.351,0.603,0.351,1.338V149.409z"/>
		<path d="M180.977,88.235v31.801h26.34V88.235H180.977z M188.314,117.154h-4.289V93.342c0-0.779,0.158-1.414,0.353-1.414h3.581    c0.195,0,0.355,0.635,0.355,1.414V117.154z M196.302,117.154h-4.286V93.342c0-0.779,0.154-1.414,0.349-1.414h3.584    c0.195,0,0.354,0.635,0.354,1.414V117.154z M204.29,117.154h-4.286V93.342c0-0.779,0.155-1.414,0.354-1.414h3.582    c0.193,0,0.351,0.635,0.351,1.414V117.154z"/>
		<path d="M183.077,66.546v20.552h22.16V66.546H183.077z M192.308,85.077h-4.288V69.49c0-0.503,0.16-0.924,0.352-0.924h3.583    c0.196,0,0.354,0.421,0.354,0.924V85.077z M200.295,85.077h-4.285V69.49c0-0.503,0.157-0.924,0.352-0.924h3.584    c0.192,0,0.35,0.421,0.35,0.924V85.077z"/>
		<path d="M204,62h-6.315c0.021,0,0.047-0.22,0.047-0.379c0-1.986-1.605-3.546-3.584-3.546c-1.98,0-3.585,1.538-3.585,3.524    c0,0.159,0.027,0.4,0.047,0.4H184v3h9.094c0.336,0,0.685,0.176,1.054,0.176c0.368,0,0.718-0.176,1.053-0.176h8.8V62z"/>
	</g>
	<g>
		<path d="M237.573,36h11.213l-2.255-5H237v-4h9v-3h-9v-3h9v-3h-60v3h7v3h-7v3h7v4h-7.525l-2.28,5h9.924l-1.913,8.55    c-0.072,0.313,0.13,0.586,0.445,0.656c0.041,0.009,0.081-0.009,0.123-0.009c0.271,0,0.516-0.198,0.574-0.469l1.651-7.459    l2.345,5.159c0.1,0.217,0.311,0.341,0.533,0.341c0.082,0,0.162-0.015,0.241-0.05c0.294-0.135,0.423-0.482,0.288-0.775    l-2.516-5.546c-0.111-0.247-0.373-0.283-0.628-0.24L194.316,36h42.058l0.054,0.159c-0.254-0.044-0.516,0.034-0.633,0.281    l-2.516,5.524c-0.132,0.293,0,0.63,0.294,0.765c0.076,0.035,0.158,0.044,0.237,0.044c0.224,0,0.438-0.128,0.534-0.345l2.347-5.165    l1.652,7.455c0.059,0.271,0.302,0.457,0.572,0.457c0.041,0,0.082-0.003,0.123-0.012c0.317-0.07,0.511-0.301,0.446-0.614    L237.573,36z M194,21h42v3h-42V21z M194,27h42v4h-42V27z"/>
		<path d="M278.675,8.348c0-8.014-3.685-14.666-8.626-16.044c-1.86-7.86-6.705-13.48-12.447-13.48    c-7.336,0-13.335,9.171-13.335,20.491c0,10.53,5.733,19.197,11.733,20.353V44h3V19.707c0-0.076,0.953-0.197,1.438-0.356    C262.119,22.182,264,24.1,267,24.554V44h2V24.584C275,23.777,278.675,16.818,278.675,8.348z"/>
	</g>
	<path d="M48.542,39.945c-1.701,0.272-2.333,1.211-2.333,2.29c0,1.079,0.315,1.927,2.333,2.825V39.945z"/>
	<path d="M54.598,53.799c0-1.434-0.584-2.195-2.779-3.002v5.877C53.879,56.315,54.598,55.244,54.598,53.799z"/>
	<path d="M95.23,20.631H4.772c-0.558,0-1.011,0.453-1.011,1.013V78.36c0,0.556,0.453,1.009,1.011,1.009H95.23   c0.558,0,1.009-0.453,1.009-1.009V21.644C96.239,21.084,95.788,20.631,95.23,20.631z M41.86,42.408   c0-3.406,2.376-5.917,6.682-6.276v-3.813h3.276v3.949c2.736,0.449,4.527,1.8,5.74,3.587l-3.23,2.38   c-0.671-0.943-1.388-1.705-2.51-2.063v6.008c4.754,1.532,7.131,3.678,7.131,7.401c0,4.13-2.467,6.548-7.131,6.955   c0,0.046,0,4.889,0,4.889h-3.276v-4.889c-4.124-0.494-6.593-2.738-7.94-4.979l3.544-2.335c0.947,1.568,2.154,2.961,4.396,3.405   v-6.951C43.565,47.931,41.86,45.954,41.86,42.408z M95.92,75.691H3.96v-8.166H95.92V75.691z"/>
	<g>
		<path d="M174.182,191.474v-37.343h4.415v-2.489h-48.157v2.489h4.938v37.343h-4.479v1.871h48.153v-1.871H174.182z M169.107,191.474    h-6.331v-37.343h6.331V191.474z M157.702,191.474h-6.089v-37.343h6.089V191.474z M140.447,154.131h6.098v37.343h-6.098V154.131z"/>
		<g>
			<rect x="125.632" y="196.069" width="58.688" height="4.446"/>
		</g>
		<g>
			<rect x="121" y="203.325" width="67.041" height="4.452"/>
		</g>
		<g>
			<path d="M130.305,149.702c0-13.431,10.877-24.309,24.304-24.309c13.426,0,24.309,10.878,24.309,24.309"/>
		</g>
		<g>
			<g>
				<rect x="153.53" y="109" width="1.876" height="17.525"/>
			</g>
			<g>
				<rect x="153.53" y="109" width="13.408" height="8.853"/>
			</g>
		</g>
	</g>
	<g>
		<g>
			<path d="M259.18,233.319c-11.74,0-23.531-3.731-23.531-3.731s0,39.689,0,41.363c-0.02-0.981,15.67,11.824,23.506,11.824     c7.854,0,23.484-11.824,23.484-11.824v-41.363C282.639,229.588,270.923,233.319,259.18,233.319z M239.723,245.267h3.626     c0,1.054,1.807,2.236,4.227,2.236c2.421,0,4.226-1.183,4.226-2.236h3.622c0,3.285-3.443,5.862-7.848,5.862     C243.175,251.129,239.723,248.552,239.723,245.267z M263.377,270.99c0-1.065-1.812-2.242-4.23-2.242     c-2.424,0-4.23,1.177-4.23,2.242h-3.62c0-3.285,3.447-5.867,7.851-5.867c4.406,0,7.85,2.582,7.85,5.867H263.377z      M271.088,251.129c-4.403,0-7.851-2.577-7.851-5.862h3.625c0,1.054,1.808,2.236,4.226,2.236c2.42,0,4.23-1.183,4.23-2.236h3.619     C278.938,248.552,275.494,251.129,271.088,251.129z"/>
		</g>
		<g>
			<path d="M234.326,226.699c0.07,0.027,4.555,1.428,10.664,2.487V203c0,0-11.724,3.726-23.459,3.726     C209.788,206.726,198,203,198,203s0,39.689,0,41.363c-0.017-0.982,15.662,11.818,23.515,11.818c3.001,0,7.153-1.734,11.122-3.876     v-26.131L234.326,226.699z M205.694,224.54h-3.614c0-3.296,3.441-5.867,7.845-5.867s7.856,2.571,7.856,5.867h-3.626     c0-1.064-1.808-2.242-4.23-2.242C207.507,222.298,205.694,223.476,205.694,224.54z M221.495,244.396     c-4.403,0-7.848-2.577-7.848-5.868h3.614c0,1.061,1.816,2.248,4.233,2.248c2.423,0,4.23-1.188,4.23-2.248h3.626     C229.352,241.819,225.896,244.396,221.495,244.396z M229.209,224.54h-3.619c0-3.296,3.446-5.867,7.853-5.867     c4.4,0,7.851,2.571,7.851,5.867h-3.623c0-1.064-1.807-2.242-4.228-2.242C231.02,222.298,229.209,223.476,229.209,224.54z"/>
		</g>
	</g>
	<g>
		<g>
			<rect x="-68.781" y="132.383" width="30.84" height="31.083"/>
			<rect x="-68.781" y="167.855" width="30.84" height="29.771"/>
			<rect x="-104" y="132.383" width="30.834" height="31.083"/>
			<rect x="-104" y="167.855" width="30.834" height="29.771"/>
		</g>
		<g>
			<polygon points="-71.026,123.395 -86.093,116 -86.093,123.395    "/>
			<g>
				<polygon points="-70.953,123.395 -55.892,116 -55.892,123.395     "/>
				<polygon points="-70.909,123.166 -55.851,130.557 -55.851,123.166     "/>
				<polygon points="-70.99,123.166 -86.052,130.557 -86.052,123.166     "/>
			</g>
		</g>
	</g>
	<g>
		<path d="M145.572-83.521c0,3.226-2.618,5.846-5.848,5.846c-3.229,0-5.85-2.62-5.85-5.846c0-3.232,2.621-5.853,5.85-5.853    C142.954-89.373,145.572-86.753,145.572-83.521z"/>
		<path d="M160.226-80.721c0,3.651-2.965,6.611-6.616,6.611s-6.613-2.959-6.613-6.611c0-3.665,2.962-6.617,6.613-6.617    S160.226-84.385,160.226-80.721z"/>
		<path d="M133.614-80.721c0,3.445-2.792,6.238-6.239,6.238c-3.443,0-6.244-2.793-6.244-6.238c0-3.452,2.801-6.251,6.244-6.251    C130.822-86.972,133.614-84.172,133.614-80.721z"/>
		<path d="M129.23-65.431c0,0,0.018,0.027,0.053,0.08h23.741c0.025-0.053,0.043-0.08,0.043-0.08l0,0    c1.178-2.021,1.857-4.389,1.857-6.91c0-0.04-0.003-0.086-0.003-0.14c-0.43,0.073-0.868,0.113-1.312,0.113    c-3.572,0-6.63-2.261-7.814-5.42c-1.531,1.616-3.683,2.613-6.07,2.613c-1.859,0-3.584-0.605-4.968-1.636    c-1.41,2.64-4.188,4.436-7.382,4.442c0,0.007,0,0.02,0,0.027c0,2.521,0.684,4.888,1.86,6.91H129.23z"/>
		<g>
			<path d="M129.839-40.179h20.997c-5.686-6.199-1.659-17.179,0.764-22.366h-20.826C133.367-57.211,137.605-45.805,129.839-40.179z"/>
			<path d="M154.852-37.386h-30.064c-11.25,7.322-7.593,23.763-7.593,23.763l0,0C118.98-2.005,129.031,6.9,141.152,6.9     c12.118,0,22.164-8.905,23.956-20.523h0.284C165.393-13.623,169.182-31.034,154.852-37.386z"/>
		</g>
	</g>
	<g>
		<g>
			<path fill="#000000" d="M173.47,336.404c-3.075,0.131-5.531,0.705-6.643,1.303l-3.559,4.658     c4.872,2.297,8.961,2.453,11.312,2.439v0.008c2.301,0.025,6.522-0.049,11.587-2.436l-3.555-4.658     c-1.111-0.596-3.565-1.174-6.638-1.303c-0.347,0.266-0.775,0.422-1.247,0.422C174.255,336.838,173.817,336.676,173.47,336.404z"/>
			<path fill="#000000" d="M189.374,328.229c0-0.398-0.169-0.754-0.433-0.998c-1.152-1.4-6.643-3.279-14.213-3.283v-0.012     c-7.575,0-13.08,1.885-14.233,3.287c-0.263,0.244-0.429,0.598-0.429,0.994c0,0.068,0.012,0.135,0.026,0.205h-0.026l0.039,0.043     c0.097,0.318,0.479,1.064,0.908,1.432l5.439,6.498c1.162-0.557,3.489-1.064,6.435-1.225c0-0.004,0-0.004,0-0.004l-0.188-0.57     v-0.428v-2.639h4.061v2.355l-0.185,1.279c-0.003,0.006-0.006,0.012-0.009,0.018c2.936,0.158,5.258,0.674,6.417,1.223l5.441-6.498     c0.427-0.365,0.809-1.115,0.905-1.432l0.043-0.045h-0.031C189.361,328.363,189.374,328.297,189.374,328.229z"/>
		</g>
	</g>
</g>
</svg>