<?xml version="1.0" encoding="UTF-8" standalone="no"?>
<!-- Created with Inkscape (http://www.inkscape.org/) -->

<svg
   xmlns:dc="http://purl.org/dc/elements/1.1/"
   xmlns:cc="http://creativecommons.org/ns#"
   xmlns:rdf="http://www.w3.org/1999/02/22-rdf-syntax-ns#"
   xmlns:svg="http://www.w3.org/2000/svg"
   xmlns="http://www.w3.org/2000/svg"
   xmlns:sodipodi="http://sodipodi.sourceforge.net/DTD/sodipodi-0.dtd"
   xmlns:inkscape="http://www.inkscape.org/namespaces/inkscape"
   width="100"
   height="100"
   id="svg4018"
   version="1.1"
   inkscape:version="0.48.4 r9939"
   sodipodi:docname="Nouveau document 2">
  <defs
     id="defs4020" />
  <sodipodi:namedview
     id="base"
     pagecolor="#ffffff"
     bordercolor="#666666"
     borderopacity="1.0"
     inkscape:pageopacity="0.0"
     inkscape:pageshadow="2"
     inkscape:zoom="1.4"
     inkscape:cx="14.690242"
     inkscape:cy="63.956729"
     inkscape:document-units="px"
     inkscape:current-layer="layer1"
     showgrid="false"
     inkscape:window-width="1920"
     inkscape:window-height="1033"
     inkscape:window-x="0"
     inkscape:window-y="0"
     inkscape:window-maximized="1" />
  <metadata
     id="metadata4023">
    <rdf:RDF>
      <cc:Work
         rdf:about="">
        <dc:format>image/svg+xml</dc:format>
        <dc:type
           rdf:resource="http://purl.org/dc/dcmitype/StillImage" />
        <dc:title></dc:title>
      </cc:Work>
    </rdf:RDF>
  </metadata>
  <g
     inkscape:label="Calque 1"
     inkscape:groupmode="layer"
     id="layer1"
     transform="translate(0,-952.36218)">
    <path
       style="fill:#000000;fill-opacity:1;fill-rule:nonzero;stroke:none"
       d="m 95.50562,982.41836 c -0.0063,1.75942 -0.451718,4.55701 1.681217,4.348 -0.157288,-1.36882 0.334179,-3.38437 -0.229562,-4.348 -0.483885,0 -0.96777,0 -1.451655,0 z m 2.24719,0 c 0,1.55657 0,3.11313 0,4.6697 1.204814,-0.89797 0.265907,-2.79585 0.5618,-4.11777 0.0647,-0.64131 0.05338,-0.57544 -0.5618,-0.55193 z m 1.12359,0 c 0.26908,0.84056 -0.588168,4.35899 0.521286,3.20154 0.09459,1.99805 0.01346,4.41385 0.04051,6.57246 -1.163693,-1.34063 -0.291518,2.25095 -0.559147,3.08117 0.0063,8.63627 0.01256,17.27257 0.01885,25.90887 1.9939,0.4921 0.766077,-2.2376 1.10208,-3.4035 0,-11.7868 0,-23.57368 0,-35.36054 -0.374527,0 -0.749053,0 -1.12358,0 z m -1.12359,8.2505 c 0,10.17114 0,20.34234 0,30.51354 1.26038,-0.2234 0.225214,-2.7424 0.5618,-3.8897 0,-8.7175 0,-17.43509 0,-26.15264 -0.187267,-0.15707 -0.374533,-0.31413 -0.5618,-0.4712 z m -0.5618,0.079 c -2.491536,0.5602 -1.495743,3.00759 -1.684862,4.87918 0.0012,8.51866 0.0023,17.03726 0.0035,25.55586 2.235141,0.7008 1.650837,-1.4174 1.685016,-2.9173 -0.0012,-9.1726 -0.0024,-18.34515 -0.0036,-27.51774 z"
       id="path7944"
       inkscape:connector-curvature="0" />
    <path
       style="fill:#000000;fill-opacity:1;fill-rule:nonzero;stroke:none"
       d="m 86.51685,982.41836 c 0,12.92135 0,25.84274 0,38.76404 2.235048,0.7008 1.651024,-1.4174 1.6854,-2.9173 0,-9.1045 0,-18.209 0,-27.31354 -2.857574,-2.05679 0.914896,-4.19231 0,-6.80465 0.143202,-1.71606 0.145782,-1.93725 -1.6854,-1.72855 z m 2.24719,0 c 0.362897,1.17757 -0.91338,4.86032 1.045774,3.57001 1.676232,0.41399 1.776881,-3.73218 0.472122,-3.57001 -0.505965,0 -1.011931,0 -1.517896,0 z m 2.80899,0 c -0.182825,1.05316 0.0051,4.76144 0.533328,2.15857 -0.217315,-0.62913 0.570581,-2.43834 -0.533328,-2.15857 z m 1.1236,0 c -0.47385,1.39206 0.506092,4.85778 1.117534,2.23638 -0.211661,-1.04115 0.704475,-2.78543 -1.117534,-2.23638 z m -3.93259,8.9102 c 0,9.95124 0,19.90254 0,29.85384 1.898108,0.4197 2.707514,-0.2492 2.2472,-2.1879 0,-8.9655 0,-17.931 0,-26.89644 -0.783854,-0.13116 -1.555669,-0.37249 -2.2472,-0.7695 z m 5.05618,0.8323 c -2.083563,-0.18808 -0.731239,2.81543 -1.116252,4.21078 -0.0023,8.27006 -0.0046,16.54016 -0.0069,24.81026 2.012145,0.5031 0.79387,-2.2241 1.123534,-3.4035 -1.42e-4,-8.5392 -2.83e-4,-17.0783 -4.24e-4,-25.61754 z m -2.24719,0.031 c 0,9.66334 0,19.32674 0,28.99014 1.260403,-0.2234 0.225498,-2.7424 0.562203,-3.8897 8.66e-4,-8.3563 0.0017,-16.7126 0.0026,-25.06894 l -0.5654,-0.031 6e-4,-5e-4 z"
       id="path7946"
       inkscape:connector-curvature="0" />
    <path
       style="fill:#000000;fill-opacity:1;fill-rule:nonzero;stroke:none"
       d="m 84.26966,982.42512 c 0,12.91909 0,25.83818 0,38.75728 1.26038,-0.2234 0.225214,-2.7424 0.5618,-3.8897 0,-11.6225 0,-23.24505 0,-34.86758 -0.187267,0 -0.374533,0 -0.5618,0 z"
       id="path7948"
       inkscape:connector-curvature="0" />
    <path
       style="fill:#000000;fill-opacity:1;fill-rule:nonzero;stroke:none"
       d="m 82.02247,982.42512 c 0,12.91909 0,25.83818 0,38.75728 2.235048,0.7008 1.651024,-1.4174 1.6854,-2.9173 0,-11.9466 0,-23.89331 0,-35.83998 -0.5618,0 -1.1236,0 -1.6854,0 z"
       id="path7950"
       inkscape:connector-curvature="0" />
    <path
       style="fill:#000000;fill-opacity:1;fill-rule:nonzero;stroke:none"
       d="m 80.33708,982.42512 c 0,12.91909 0,25.83818 0,38.75728 2.012137,0.5031 0.793907,-2.2241 1.12359,-3.4035 0,-11.7846 0,-23.56918 0,-35.35378 -0.37453,0 -0.74906,0 -1.12359,0 z"
       id="path7952"
       inkscape:connector-curvature="0" />
    <path
       style="fill:#000000;fill-opacity:1;fill-rule:nonzero;stroke:none"
       d="m 79.21348,982.42512 c 0,12.91909 0,25.83818 0,38.75728 1.26038,-0.2234 0.225214,-2.7424 0.5618,-3.8897 0,-11.6225 0,-23.24505 0,-34.86758 -0.187267,0 -0.374533,0 -0.5618,0 z"
       id="path7954"
       inkscape:connector-curvature="0" />
    <path
       style="fill:#000000;fill-opacity:1;fill-rule:nonzero;stroke:none"
       d="m 75.8427,981.29476 c 0,13.29588 0,26.59174 0,39.88764 2.235047,0.7008 1.651007,-1.4174 1.685388,-2.9173 -1e-5,-11.9489 -1.9e-5,-23.89781 -2.8e-5,-35.84674 -0.561787,-0.37453 -1.123573,-0.74907 -1.68536,-1.1236 z"
       id="path7956"
       inkscape:connector-curvature="0" />
    <path
       style="fill:#000000;fill-opacity:1;fill-rule:nonzero;stroke:none"
       d="m 74.1573,982.41836 c 0,12.92135 0,25.84274 0,38.76404 2.012145,0.5031 0.793918,-2.2241 1.123598,-3.4035 -6e-6,-11.7868 -1.2e-5,-23.57368 -1.8e-5,-35.36054 -0.374527,0 -0.749053,0 -1.12358,0 z"
       id="path7958"
       inkscape:connector-curvature="0" />
    <path
       style="fill:#000000;fill-opacity:1;fill-rule:nonzero;stroke:none"
       d="m 72.47191,982.41836 c 0,12.92135 0,25.84274 0,38.76404 2.012145,0.5031 0.79392,-2.2241 1.1236,-3.4035 0,-11.7868 0,-23.57368 0,-35.36054 -0.374533,0 -0.749067,0 -1.1236,0 z"
       id="path7960"
       inkscape:connector-curvature="0" />
    <path
       style="fill:#000000;fill-opacity:1;fill-rule:nonzero;stroke:none"
       d="m 70.22472,982.41836 c 0,12.92135 0,25.84274 0,38.76404 1.26038,-0.2234 0.225216,-2.7424 0.561802,-3.8897 6e-6,-11.6248 1.2e-5,-23.24955 1.8e-5,-34.87434 -0.187273,0 -0.374547,0 -0.56182,0 z"
       id="path7962"
       inkscape:connector-curvature="0" />
    <path
       style="fill:#000000;fill-opacity:1;fill-rule:nonzero;stroke:none"
       d="m 67.97753,982.41836 c 0,12.92135 0,25.84274 0,38.76404 1.26038,-0.2234 0.225216,-2.7424 0.561803,-3.8897 9e-6,-11.6248 1.8e-5,-23.24955 2.7e-5,-34.87434 -0.187277,0 -0.374553,0 -0.56183,0 z"
       id="path7964"
       inkscape:connector-curvature="0" />
    <path
       style="fill:#000000;fill-opacity:1;fill-rule:nonzero;stroke:none"
       d="m 65.16854,982.41836 c 0,12.92135 0,25.84274 0,38.76404 2.012137,0.5031 0.793907,-2.2241 1.123591,-3.4035 3e-6,-11.7868 6e-6,-23.57368 9e-6,-35.36054 -0.374533,0 -0.749067,0 -1.1236,0 z"
       id="path7966"
       inkscape:connector-curvature="0" />
    <path
       style="fill:#000000;fill-opacity:1;fill-rule:nonzero;stroke:none"
       d="m 62.92135,982.41836 c 0,12.92135 0,25.84274 0,38.76404 1.26038,-0.2234 0.225212,-2.7424 0.561797,-3.8897 -9e-6,-11.6248 -1.8e-5,-23.24955 -2.7e-5,-34.87434 -0.187257,0 -0.374513,0 -0.56177,0 z"
       id="path7968"
       inkscape:connector-curvature="0" />
    <path
       style="fill:#000000;fill-opacity:1;fill-rule:nonzero;stroke:none"
       d="m 61.79775,982.41836 c 0,12.92135 0,25.84274 0,38.76404 1.26038,-0.2234 0.225212,-2.7424 0.561797,-3.8897 -9e-6,-11.6248 -1.8e-5,-23.24955 -2.7e-5,-34.87434 -0.187257,0 -0.374513,0 -0.56177,0 z"
       id="path7970"
       inkscape:connector-curvature="0" />
    <path
       style="fill:#000000;fill-opacity:1;fill-rule:nonzero;stroke:none"
       d="m 60.67416,982.41836 c 0,12.92135 0,25.84274 0,38.76404 1.26038,-0.2234 0.225216,-2.7424 0.561802,-3.8897 6e-6,-11.6248 1.2e-5,-23.24955 1.8e-5,-34.87434 -0.187273,0 -0.374547,0 -0.56182,0 z"
       id="path7972"
       inkscape:connector-curvature="0" />
    <path
       style="fill:#000000;fill-opacity:1;fill-rule:nonzero;stroke:none"
       d="m 57.86517,982.41836 c 0,12.92135 0,25.84274 0,38.76404 2.012137,0.5031 0.793907,-2.2241 1.123591,-3.4035 3e-6,-11.7868 6e-6,-23.57368 9e-6,-35.36054 -0.374533,0 -0.749067,0 -1.1236,0 z"
       id="path7974"
       inkscape:connector-curvature="0" />
    <path
       style="fill:#000000;fill-opacity:1;fill-rule:nonzero;stroke:none"
       d="m 55.61798,982.41836 c 0,12.92135 0,25.84274 0,38.76404 1.26038,-0.2234 0.225214,-2.7424 0.5618,-3.8897 0,-11.6248 0,-23.24955 0,-34.87434 -0.187267,0 -0.374533,0 -0.5618,0 z"
       id="path7976"
       inkscape:connector-curvature="0" />
    <path
       style="fill:#000000;fill-opacity:1;fill-rule:nonzero;stroke:none"
       d="m 53.36129,982.42512 c 0.003,12.91909 0.006,25.83818 0.009,38.75728 1.260322,-0.2234 0.224507,-2.7424 0.560796,-3.8897 -0.003,-11.6225 -0.006,-23.24505 -0.009,-34.86758 -0.186933,0 -0.373867,0 -0.5608,0 z"
       id="path7978"
       inkscape:connector-curvature="0" />
    <path
       style="fill:#000000;fill-opacity:1;fill-rule:nonzero;stroke:none"
       d="m 50.5618,979.60937 c 0,13.85768 0,27.71533 0,41.57303 2.012137,0.5031 0.793907,-2.2241 1.123591,-3.4035 3e-6,-12.7232 6e-6,-25.44634 9e-6,-38.16953 -0.374533,0 -0.749067,0 -1.1236,0 z"
       id="path7980"
       inkscape:connector-curvature="0" />
    <path
       style="fill:#000000;fill-opacity:1;fill-rule:nonzero;stroke:none"
       d="m 49.4382,982.41836 c 0,12.92135 0,25.84274 0,38.76404 1.26038,-0.2234 0.225214,-2.7424 0.5618,-3.8897 0,-11.6248 0,-23.24955 0,-34.87434 -0.187267,0 -0.374533,0 -0.5618,0 z"
       id="path7983"
       inkscape:connector-curvature="0" />
    <path
       style="fill:#000000;fill-opacity:1;fill-rule:nonzero;stroke:none"
       d="m 47.75281,973.42959 c 0,15.9176 0,31.83521 0,47.75281 2.012137,0.5031 0.793907,-2.2241 1.12359,-3.4035 0,-14.7831 0,-29.5662 0,-44.34931 -0.37453,0 -0.74906,0 -1.12359,0 z"
       id="path7985"
       inkscape:connector-curvature="0" />
    <path
       style="fill:#000000;fill-opacity:1;fill-rule:nonzero;stroke:none"
       d="m 45.50562,982.41836 c 0,12.92135 0,25.84274 0,38.76404 2.235046,0.7008 1.651009,-1.4174 1.685391,-2.9173 3e-6,-11.9489 6e-6,-23.89781 9e-6,-35.84674 -0.5618,0 -1.1236,0 -1.6854,0 z"
       id="path7987"
       inkscape:connector-curvature="0" />
    <path
       style="fill:#000000;fill-opacity:1;fill-rule:nonzero;stroke:none"
       d="m 43.25843,982.41836 c 0,12.92135 0,25.84274 0,38.76404 1.260364,-0.2235 0.225206,-2.7424 0.561791,-3.8897 3e-6,-11.6248 6e-6,-23.24955 9e-6,-34.87434 -0.187267,0 -0.374533,0 -0.5618,0 z"
       id="path7989"
       inkscape:connector-curvature="0" />
    <path
       style="fill:#000000;fill-opacity:1;fill-rule:nonzero;stroke:none"
       d="m 41.57303,979.04757 c 0,14.04494 0,28.08993 0,42.13483 2.012145,0.5031 0.79392,-2.2241 1.1236,-3.4035 0,-12.9104 0,-25.82088 0,-38.73133 -0.374533,0 -0.749067,0 -1.1236,0 z"
       id="path7991"
       inkscape:connector-curvature="0" />
    <path
       style="fill:#000000;fill-opacity:1;fill-rule:nonzero;stroke:none"
       d="m 39.32584,982.41836 c 0,12.92135 0,25.84274 0,38.76404 2.235048,0.7008 1.651024,-1.4174 1.6854,-2.9173 0,-11.9489 0,-23.89781 0,-35.84674 -0.5618,0 -1.1236,0 -1.6854,0 z"
       id="path7993"
       inkscape:connector-curvature="0" />
    <path
       style="fill:#000000;fill-opacity:1;fill-rule:nonzero;stroke:none"
       d="m 37.07865,982.41836 c 0,12.92135 0,25.84274 0,38.76404 1.26038,-0.2234 0.225215,-2.7424 0.561801,-3.8897 3e-6,-11.6248 6e-6,-23.24955 9e-6,-34.87434 -0.18727,0 -0.37454,0 -0.56181,0 z"
       id="path7995"
       inkscape:connector-curvature="0" />
    <path
       style="fill:#000000;fill-opacity:1;fill-rule:nonzero;stroke:none"
       d="m 35.95506,982.41836 c 0,12.92135 0,25.84274 0,38.76404 1.260364,-0.2235 0.225206,-2.7424 0.56179,-3.8897 0,-11.6248 0,-23.24955 0,-34.87434 -0.187263,0 -0.374527,0 -0.56179,0 z"
       id="path7997"
       inkscape:connector-curvature="0" />
    <path
       style="fill:#000000;fill-opacity:1;fill-rule:nonzero;stroke:none"
       d="m 33.13129,982.37163 c 0.0049,12.93692 0.0099,25.87387 0.0148,38.81077 2.012335,0.5031 0.79303,-2.2241 1.122248,-3.4035 -0.0047,-11.8024 -0.0093,-23.60484 -0.01396,-35.40727 -0.374363,0 -0.748727,0 -1.12309,0 z"
       id="path7999"
       inkscape:connector-curvature="0" />
    <path
       style="fill:#000000;fill-opacity:1;fill-rule:nonzero;stroke:none"
       d="m 30.89888,976.23858 c 0,14.98127 0,29.96252 0,44.94382 1.260364,-0.2235 0.225206,-2.7424 0.56179,-3.8897 0,-13.6847 0,-27.36941 0,-41.05412 -0.187263,0 -0.374527,0 -0.56179,0 z"
       id="path8001"
       inkscape:connector-curvature="0" />
    <path
       style="fill:#000000;fill-opacity:1;fill-rule:nonzero;stroke:none"
       d="m 29.21348,982.41836 c 0,12.92135 0,25.84274 0,38.76404 2.012145,0.5031 0.79392,-2.2241 1.1236,-3.4035 0,-11.7868 0,-23.57368 0,-35.36054 -0.374533,0 -0.749067,0 -1.1236,0 z"
       id="path8003"
       inkscape:connector-curvature="0" />
    <path
       style="fill:#000000;fill-opacity:1;fill-rule:nonzero;stroke:none"
       d="m 25.8427,982.41836 c 0,12.92135 0,25.84274 0,38.76404 2.235046,0.7008 1.651008,-1.4174 1.68539,-2.9173 0,-11.9489 0,-23.89781 0,-35.84674 -0.561797,0 -1.123593,0 -1.68539,0 z"
       id="path8005"
       inkscape:connector-curvature="0" />
    <path
       style="fill:#000000;fill-opacity:1;fill-rule:nonzero;stroke:none"
       d="m 24.7191,982.41836 c 0,12.92135 0,25.84274 0,38.76404 1.26038,-0.2234 0.225214,-2.7424 0.5618,-3.8897 0,-11.6248 0,-23.24955 0,-34.87434 -0.187267,0 -0.374533,0 -0.5618,0 z"
       id="path8007"
       inkscape:connector-curvature="0" />
    <path
       style="fill:#000000;fill-opacity:1;fill-rule:nonzero;stroke:none"
       d="m 22.47191,982.41836 c 0,12.92135 0,25.84274 0,38.76404 1.26038,-0.2234 0.225214,-2.7424 0.5618,-3.8897 0,-11.6248 0,-23.24955 0,-34.87434 -0.187267,0 -0.374533,0 -0.5618,0 z"
       id="path8009"
       inkscape:connector-curvature="0" />
    <path
       style="fill:#000000;fill-opacity:1;fill-rule:nonzero;stroke:none"
       d="m 20.78652,982.41836 c 0,12.92135 0,25.84274 0,38.76404 2.012137,0.5031 0.793907,-2.2241 1.123591,-3.4035 3e-6,-11.7868 6e-6,-23.57368 9e-6,-35.36054 -0.374533,0 -0.749067,0 -1.1236,0 z"
       id="path8011"
       inkscape:connector-curvature="0" />
    <path
       style="fill:#000000;fill-opacity:1;fill-rule:nonzero;stroke:none"
       d="m 18.53933,979.04757 c 0,14.04494 0,28.08993 0,42.13483 1.260364,-0.2235 0.225206,-2.7424 0.56179,-3.8897 0,-12.7484 0,-25.49675 0,-38.24513 -0.187263,0 -0.374527,0 -0.56179,0 z"
       id="path8013"
       inkscape:connector-curvature="0" />
    <path
       style="fill:#000000;fill-opacity:1;fill-rule:nonzero;stroke:none"
       d="m 16.85393,978.48577 c 0,14.23221 0,28.46443 0,42.69663 2.012145,0.5031 0.79392,-2.2241 1.1236,-3.4035 0,-13.0977 0,-26.19541 0,-39.29313 -0.374533,0 -0.749067,0 -1.1236,0 z"
       id="path8015"
       inkscape:connector-curvature="0" />
    <path
       style="fill:#000000;fill-opacity:1;fill-rule:nonzero;stroke:none"
       d="m 14.60674,982.41836 c 0,12.92135 0,25.84274 0,38.76404 2.235046,0.7008 1.651008,-1.4174 1.68539,-2.9173 0,-11.9489 0,-23.89781 0,-35.84674 -0.561797,0 -1.123593,0 -1.68539,0 z"
       id="path8017"
       inkscape:connector-curvature="0" />
    <path
       style="fill:#000000;fill-opacity:1;fill-rule:nonzero;stroke:none"
       d="m 12.35955,982.41836 c 0,12.92135 0,25.84274 0,38.76404 2.235046,0.7008 1.651008,-1.4174 1.68539,-2.9173 0,-11.9489 0,-23.89781 0,-35.84674 -0.561797,0 -1.123593,0 -1.68539,0 z"
       id="path8019"
       inkscape:connector-curvature="0" />
    <path
       style="fill:#000000;fill-opacity:1;fill-rule:nonzero;stroke:none"
       d="m 10.67416,979.04757 c 0,14.04494 0,28.08993 0,42.13483 2.012137,0.5031 0.793904,-2.2241 1.123587,-3.4035 -1.2e-5,-12.9104 -2.5e-5,-25.82088 -3.7e-5,-38.73133 -0.374517,0 -0.749033,0 -1.12355,0 z"
       id="path8021"
       inkscape:connector-curvature="0" />
    <path
       style="fill:#000000;fill-opacity:1;fill-rule:nonzero;stroke:none"
       d="m 8.42697,979.60937 c 0,13.85768 0,27.71533 0,41.57303 2.235046,0.7008 1.651008,-1.4174 1.685389,-2.9173 -7e-6,-12.8852 -1.3e-5,-25.77047 -1.9e-5,-38.65573 -0.56179,0 -1.12358,0 -1.68537,0 z"
       id="path8023"
       inkscape:connector-curvature="0" />
    <path
       style="fill:#000000;fill-opacity:1;fill-rule:nonzero;stroke:none"
       d="m 6.17978,982.41836 c 0,12.92135 0,25.84274 0,38.76404 1.2603638,-0.2235 0.2252043,-2.7424 0.561788,-3.8897 -6e-6,-11.6248 -1.2e-5,-23.24955 -1.8e-5,-34.87434 -0.1872567,0 -0.3745133,0 -0.56177,0 z"
       id="path8025"
       inkscape:connector-curvature="0" />
    <path
       style="fill:#000000;fill-opacity:1;fill-rule:nonzero;stroke:none"
       d="m 4.49438,982.41836 c 0,12.92135 0,25.84274 0,38.76404 1.2603798,-0.2234 0.2252142,-2.7424 0.5618,-3.8897 0,-11.6248 0,-23.24955 0,-34.87434 -0.1872667,0 -0.3745333,0 -0.5618,0 z"
       id="path8027"
       inkscape:connector-curvature="0" />
    <path
       style="fill:#000000;fill-opacity:1;fill-rule:nonzero;stroke:none"
       d="m 1.68465,982.37163 c 0,12.93692 0,25.87387 0,38.81077 1.2599967,-0.2237 0.2250097,-2.7425 0.56156,-3.8897 0,-11.6403 0,-23.28071 0,-34.92107 -0.1871867,0 -0.3743733,0 -0.56156,0 z"
       id="path8029"
       inkscape:connector-curvature="0" />
    <path
       style="fill:#000000;fill-opacity:1;fill-rule:nonzero;stroke:none"
       d="m 1e-5,982.37163 c 0,12.93692 0,25.87387 0,38.81077 2.0117232,0.5029 0.79327177,-2.2244 1.1231,-3.4035 0,-11.8024 0,-23.60484 0,-35.40727 -0.37436667,0 -0.74873333,0 -1.1231,0 z"
       id="path8031"
       inkscape:connector-curvature="0" />
    <path
       style="fill:#000000;fill-opacity:1"
       d="m 7.28111,979.14198 c 0.5343734,-3.32049 1.4100546,-7.01631 5.687629,-5.14389 2.958838,1.15041 6.428709,-0.5303 7.662441,-1.44495 2.763161,-0.5111 1.594624,-0.0581 0.972045,0.50335 2.75584,1.21398 1.77921,2.59686 -0.582039,2.48516 -2.294827,1.55576 -1.0223,5.8927 -4.705934,4.1196 -2.982988,-0.6907 -9.6706195,2.26474 -7.6484045,-3.16093 0.1561778,-4.46882 0.2268932,2.09416 -1.3857175,2.64166 l -2e-5,0 z"
       id="path8033"
       inkscape:connector-curvature="0" />
    <path
       style="fill:#000000;fill-opacity:1;stroke:none"
       d="m 31.141653,974.87107 c 1.459133,1.55252 -1.292783,1.91274 0,0 z"
       id="path8037"
       inkscape:connector-curvature="0" />
    <path
       style="fill:#000000;fill-opacity:1;stroke:none"
       d="m 30.92248,975.07599 c 0.07277,-2.40669 0.9653,0.40623 0,0 z"
       id="path8039"
       inkscape:connector-curvature="0" />
    <path
       style="fill:#000000;fill-opacity:1;stroke:none"
       d="m 32.304645,978.78837 c 0.20723,2.12048 -2.191842,0.72505 0,0 z"
       id="path8047"
       inkscape:connector-curvature="0" />
    <path
       style="fill:#000000;fill-opacity:1;stroke:none"
       d="m 32.00596,978.81678 c 1.527486,-1.86124 0.516202,0.9113 0,0 z"
       id="path8049"
       inkscape:connector-curvature="0" />
    <path
       style="fill:#000000;fill-opacity:1;stroke:none"
       d="m 32.304645,979.79508 c 0.20723,2.12048 -2.191842,0.72505 0,0 z"
       id="path8053"
       inkscape:connector-curvature="0" />
    <path
       style="fill:#000000;fill-opacity:1;stroke:none"
       d="m 32.00596,979.82348 c 1.527483,-1.86127 0.516209,0.9113 0,0 z"
       id="path8055"
       inkscape:connector-curvature="0" />
    <path
       style="fill:#000000;fill-opacity:1;stroke:none"
       d="m 32.304645,977.78167 c 0.20723,2.12048 -2.191842,0.72505 0,0 z"
       id="path8059"
       inkscape:connector-curvature="0" />
    <path
       style="fill:#000000;fill-opacity:1;stroke:none"
       d="m 32.00596,977.81007 c 1.527483,-1.86127 0.516209,0.9113 0,0 z"
       id="path8061"
       inkscape:connector-curvature="0" />
    <path
       style="fill:#000000;fill-opacity:1;stroke:none"
       d="m 32.304645,976.77496 c 0.20723,2.12048 -2.191842,0.72505 0,0 z"
       id="path8065"
       inkscape:connector-curvature="0" />
    <path
       style="fill:#000000;fill-opacity:1;stroke:none"
       d="m 32.00596,976.80336 c 1.527473,-1.86125 0.516228,0.91128 0,0 z"
       id="path8067"
       inkscape:connector-curvature="0" />
    <path
       style="fill:#000000;fill-opacity:1;stroke:none"
       d="m 32.129178,975.67977 c 0.596404,2.04541 -2.019622,1.11848 0,0 z"
       id="path8071"
       inkscape:connector-curvature="0" />
    <path
       style="fill:#000000;fill-opacity:1;stroke:none"
       d="m 31.84093,975.76301 c 1.156254,-2.11202 0.676098,0.79983 0,0 z"
       id="path8073"
       inkscape:connector-curvature="0" />
    <path
       style="fill:#000000;fill-opacity:1;stroke:none"
       d="m 30.027115,978.78837 c -0.20723,2.12048 2.191842,0.72505 0,0 z"
       id="path8079"
       inkscape:connector-curvature="0" />
    <path
       style="fill:#000000;fill-opacity:1;stroke:none"
       d="m 30.3258,978.81678 c -1.527507,-1.86124 -0.516203,0.91129 0,0 z"
       id="path8081"
       inkscape:connector-curvature="0" />
    <path
       style="fill:#000000;fill-opacity:1;stroke:none"
       d="m 30.027115,979.79508 c -0.20723,2.12048 2.191842,0.72505 0,0 z"
       id="path8085"
       inkscape:connector-curvature="0" />
    <path
       style="fill:#000000;fill-opacity:1;stroke:none"
       d="m 30.3258,979.82348 c -1.527479,-1.86127 -0.516205,0.91131 0,0 z"
       id="path8087"
       inkscape:connector-curvature="0" />
    <path
       style="fill:#000000;fill-opacity:1;stroke:none"
       d="m 30.027115,977.78167 c -0.20723,2.12048 2.191842,0.72505 0,0 z"
       id="path8091"
       inkscape:connector-curvature="0" />
    <path
       style="fill:#000000;fill-opacity:1;stroke:none"
       d="m 30.3258,977.81007 c -1.527479,-1.86127 -0.516205,0.91131 0,0 z"
       id="path8093"
       inkscape:connector-curvature="0" />
    <path
       style="fill:#000000;fill-opacity:1;stroke:none"
       d="m 30.027115,976.77496 c -0.20723,2.12048 2.191842,0.72505 0,0 z"
       id="path8097"
       inkscape:connector-curvature="0" />
    <path
       style="fill:#000000;fill-opacity:1;stroke:none"
       d="m 30.3258,976.80336 c -1.527494,-1.86125 -0.516229,0.91127 0,0 z"
       id="path8099"
       inkscape:connector-curvature="0" />
    <path
       style="fill:#000000;fill-opacity:1;stroke:none"
       d="m 30.202572,975.67977 c -0.596404,2.04541 2.019622,1.11848 0,0 z"
       id="path8103"
       inkscape:connector-curvature="0" />
    <path
       style="fill:#000000;fill-opacity:1;stroke:none"
       d="m 30.49083,975.76301 c -1.156245,-2.11202 -0.676115,0.79984 0,0 z"
       id="path8105"
       inkscape:connector-curvature="0" />
    <path
       style="fill:#000000;fill-opacity:1"
       d="m 53.301855,977.1043 c 1.335069,4.56248 -4.650278,-0.62091 0,0 z"
       id="path8109"
       inkscape:connector-curvature="0" />
    <path
       style="fill:#000000;fill-opacity:1"
       d="m 50.977433,975.67336 c 4.751738,0.14016 -2.02753,4.23081 0,0 z"
       id="path8111"
       inkscape:connector-curvature="0" />
    <path
       style="fill:#000000;fill-opacity:1"
       d="m 48.898262,977.44188 c 1.601667,-4.47586 3.397196,3.23568 0,0 z"
       id="path8113"
       inkscape:connector-curvature="0" />
    <path
       style="fill:#000000;fill-opacity:1"
       d="m 49.937675,979.96572 c -3.761853,-2.90639 4.127113,-2.23104 0,0 z"
       id="path8115"
       inkscape:connector-curvature="0" />
    <path
       style="fill:#000000;fill-opacity:1"
       d="m 52.659218,979.75711 c -3.92662,2.67961 -0.8465,-4.61455 0,0 z"
       id="path8117"
       inkscape:connector-curvature="0" />
    <path
       style="fill:#000000;fill-opacity:1"
       d="m 46.882904,970.40106 c 4.166987,-2.28798 0.397022,4.67472 0,0 z"
       id="path8121"
       inkscape:connector-curvature="0" />
    <path
       style="fill:#000000;fill-opacity:1"
       d="m 45.98715,972.97949 c -0.888334,-4.67007 4.568608,1.06698 0,0 z"
       id="path8123"
       inkscape:connector-curvature="0" />
    <path
       style="fill:#000000;fill-opacity:1"
       d="m 48.162558,974.62809 c -4.716008,-0.59828 2.426533,-4.01529 0,0 z"
       id="path8125"
       inkscape:connector-curvature="0" />
    <path
       style="fill:#000000;fill-opacity:1"
       d="m 50.40276,973.06861 c -2.026318,4.30031 -3.068928,-3.54857 0,0 z"
       id="path8127"
       inkscape:connector-curvature="0" />
    <path
       style="fill:#000000;fill-opacity:1"
       d="m 49.611879,970.45627 c 3.463674,3.25601 -4.323234,1.82216 0,0 z"
       id="path8129"
       inkscape:connector-curvature="0" />
    <path
       style="fill:#000000;fill-opacity:1"
       d="m 44.070078,976.07703 c 2.532295,4.0232 -4.642741,0.67496 0,0 z"
       id="path8133"
       inkscape:connector-curvature="0" />
    <path
       style="fill:#000000;fill-opacity:1"
       d="m 41.442871,975.33664 c 4.608814,-1.16512 -0.792765,4.62409 0,0 z"
       id="path8135"
       inkscape:connector-curvature="0" />
    <path
       style="fill:#000000;fill-opacity:1"
       d="m 39.926842,977.60637 c 0.316109,-4.74328 4.152786,2.18289 0,0 z"
       id="path8137"
       inkscape:connector-curvature="0" />
    <path
       style="fill:#000000;fill-opacity:1"
       d="m 41.617042,979.74964 c -4.413448,-1.7664 3.359328,-3.27499 0,0 z"
       id="path8139"
       inkscape:connector-curvature="0" />
    <path
       style="fill:#000000;fill-opacity:1"
       d="m 44.177692,978.80446 c -3.043768,3.65159 -2.076606,-4.20694 0,0 z"
       id="path8141"
       inkscape:connector-curvature="0" />
    <path
       style="fill:#000000;fill-opacity:1;fill-rule:nonzero;stroke:none"
       d="m 68.79021,971.37189 c 5.137444,0.2094 7.021873,5.81694 7.011513,10.16487 -0.213278,4.30846 3.076328,-0.27863 1.53226,-2.47469 -0.52877,-3.39511 -2.926626,-8.32623 -6.928936,-7.96897 -0.538279,0.0929 -1.076558,0.18586 -1.614837,0.27879 z"
       id="path8143"
       inkscape:connector-curvature="0" />
    <path
       style="fill:#000000;fill-opacity:1;stroke:none"
       d="m 61.4018,980.00981 c 3.751645,-1.11531 9.201926,-1.44036 10.15532,-6.10372 1.769229,-5.25951 -8.347511,-5.78926 -7.822255,-0.19452 -0.521488,2.17549 -0.969174,4.46275 -2.333065,6.29824 z"
       id="path8149"
       inkscape:connector-curvature="0" />
    <path
       style="fill:#ffffff;fill-opacity:1;stroke:none"
       d="m 72.15189,970.185 c -3.115555,3.96234 -6.819388,7.63002 -11.28315,10.03935 4.517815,-2.17527 8.948325,-5.50386 11.28315,-10.03935 z"
       id="path8151"
       inkscape:connector-curvature="0" />
    <path
       style="fill:#000000;fill-opacity:1;stroke:none"
       d="m 87.03842,979.94916 c -3.686036,-1.31602 -9.110854,-1.93453 -9.811364,-6.64252 -1.40636,-5.58538 9.20025,-4.60385 8.005802,0.95161 0.3129,1.96795 0.676751,4.00234 1.805562,5.69091 z"
       id="path8159"
       inkscape:connector-curvature="0" />
    <path
       style="fill:#000000;fill-opacity:1;stroke:none"
       d="m 76.83383,969.55889 c 2.897326,4.1246 6.397972,7.9867 10.72531,10.63324 -4.393931,-2.41575 -8.638481,-5.97843 -10.72531,-10.63324 z"
       id="path8161"
       inkscape:connector-curvature="0" />
    <path
       style="fill:#000000;fill-opacity:1;fill-rule:nonzero;stroke:none"
       d="m 77.45965,970.39814 c -1.981585,3.75275 -1.322844,8.32307 -1.611682,12.45456 1.998964,1.79334 1.8625,-2.96249 1.798174,-5.12623 -0.519663,-2.16414 1.506192,-5.77892 -0.186492,-7.32833 z"
       id="path8163"
       inkscape:connector-curvature="0" />
    <path
       style="fill:#000000;fill-opacity:1;stroke:none"
       d="m 89.910794,987.6298 c -1.436282,2.15018 -1.25628,-2.07686 0,0 z"
       id="path8165"
       inkscape:connector-curvature="0" />
    <path
       style="fill:#000000;fill-opacity:1;fill-rule:nonzero;stroke:none"
       d="m 95.50564,1034.1038 c 4.82e-4,1.5031 -0.503701,3.5109 1.701733,2.809 1.50135,0 3.495127,0.4989 2.792607,-1.7017 0.49474,-1.9983 -2.234374,-0.7728 -3.403466,-1.1073 -0.363625,0 -0.727249,0 -1.090874,0 z"
       id="path8169"
       inkscape:connector-curvature="0" />
    <path
       style="fill:#000000;fill-opacity:1;fill-rule:nonzero;stroke:none"
       d="m 86.51686,1034.1038 c 4.82e-4,1.5031 -0.503701,3.5109 1.701733,2.809 1.867206,0 3.734411,0 5.601617,0 -4.82e-4,-1.5031 0.503701,-3.5109 -1.701733,-2.809 -1.867206,0 -3.734411,0 -5.601617,0 z"
       id="path8171"
       inkscape:connector-curvature="0" />
    <path
       style="fill:#000000;fill-opacity:1;fill-rule:nonzero;stroke:none"
       d="m 53.37079,1034.1038 c 4.82e-4,1.5031 -0.503701,3.5109 1.701733,2.809 9.919652,0 19.839305,0 29.758957,0 -4.82e-4,-1.5031 0.503701,-3.5109 -1.701733,-2.809 -9.919652,0 -19.839305,0 -29.758957,0 z"
       id="path8173"
       inkscape:connector-curvature="0" />
    <path
       style="fill:#000000;fill-opacity:1;fill-rule:nonzero;stroke:none"
       d="m 20.78652,1034.1038 c 4.82e-4,1.5031 -0.503701,3.5109 1.701733,2.809 9.732379,0 19.464758,0 29.197137,0 -4.82e-4,-1.5031 0.503701,-3.5109 -1.701733,-2.809 -9.732379,0 -19.464758,0 -29.197137,0 z"
       id="path8175"
       inkscape:connector-curvature="0" />
    <path
       style="fill:#000000;fill-opacity:1;fill-rule:nonzero;stroke:none"
       d="m 0,1034.1038 c 4.8159459e-4,1.5031 -0.50370054,3.5109 1.701733,2.809 5.7997957,0 11.599591,0 17.399387,0 -4.82e-4,-1.5031 0.503701,-3.5109 -1.701733,-2.809 -5.799796,0 -11.5995913,0 -17.399387,0 z"
       id="path8177"
       inkscape:connector-curvature="0" />
    <path
       style="font-size:22.90272331px;font-style:normal;font-variant:normal;font-weight:normal;font-stretch:normal;line-height:125%;letter-spacing:0px;word-spacing:0px;fill:#000000;fill-opacity:1;stroke:none;font-family:Arial Narrow;-inkscape-font-specification:Arial Narrow"
       d="m 0.16592,1027.824 c -1.10338137,-5.4689 7.3868343,-6.512 7.1949109,-0.8319 1.1717429,6.2765 -7.32148381,7.6714 -7.1949109,0.8319 z m 1.03034,0.019 c -0.68411858,5.102 6.6516447,3.9728 5.1403128,-0.7351 -0.2294715,-4.6933 -5.73604747,-3.6708 -5.1403128,0.7351 z"
       id="path3685"
       inkscape:connector-curvature="0" />
    <path
       style="font-size:22.90272331px;font-style:normal;font-variant:normal;font-weight:normal;font-stretch:normal;line-height:125%;letter-spacing:0px;word-spacing:0px;fill:#000000;fill-opacity:1;stroke:none;font-family:Arial Narrow;-inkscape-font-specification:Arial Narrow"
       d="m 8.42697,1032.4184 c 0,-3.1835 0,-6.3671 0,-9.5506 2.615211,-0.291 6.728339,0.1089 5.455169,3.8799 -0.250502,3.0291 -5.1604231,0.2072 -4.331579,3.1981 -0.2565342,1.0633 0.770056,3.0595 -1.12359,2.4726 z m 1.12359,-5.0562 c 3.280096,1.2553 4.967106,-3.9825 0.86368,-3.3743 -1.6764569,-0.4761 -0.5232981,2.4462 -0.86368,3.3743 z"
       id="path3687"
       inkscape:connector-curvature="0" />
    <path
       style="font-size:22.90272331px;font-style:normal;font-variant:normal;font-weight:normal;font-stretch:normal;line-height:125%;letter-spacing:0px;word-spacing:0px;fill:#333333;fill-opacity:1;stroke:none;font-family:Arial Narrow;-inkscape-font-specification:Arial Narrow"
       d="m 15.16854,1032.4184 c 0,-3.1835 0,-6.3671 0,-9.5506 1.87266,0 3.74532,0 5.61798,0 0.503123,2.0121 -2.224124,0.7939 -3.403466,1.1236 -1.66692,-0.779 -1.385139,2.7557 -0.604715,2.809 1.103835,0.3691 3.848011,-0.9021 3.446381,0.9724 -0.911808,0.5305 -3.179621,-0.295 -3.93259,0.3943 0.180731,1.348 -0.748271,3.8058 1.458628,3.1277 1.10709,0.03 4.014168,-0.4283 2.792657,1.1236 -1.791625,0 -3.58325,0 -5.374875,0 z"
       id="path3689"
       inkscape:connector-curvature="0" />
    <path
       style="font-size:22.90272331px;font-style:normal;font-variant:normal;font-weight:normal;font-stretch:normal;line-height:125%;letter-spacing:0px;word-spacing:0px;fill:#333333;fill-opacity:1;stroke:none;font-family:Arial Narrow;-inkscape-font-specification:Arial Narrow"
       d="m 21.91011,1032.4184 c 0,-3.1835 0,-6.3671 0,-9.5506 1.773615,-0.443 1.848372,1.9583 2.737176,2.9967 0.773002,1.4355 1.546003,2.8711 2.319004,4.3067 0,-2.4345 0,-4.8689 0,-7.3034 2.012145,-0.5031 0.79392,2.2241 1.1236,3.4035 0,2.049 0,4.0981 0,6.1471 -1.773615,0.443 -1.848372,-1.9583 -2.737176,-2.9967 -0.773002,-1.4355 -1.546003,-2.8711 -2.319004,-4.3067 0,2.4345 0,4.8689 0,7.3034 -0.374533,0 -0.749067,0 -1.1236,0 z"
       id="path3691"
       inkscape:connector-curvature="0" />
    <path
       style="font-size:22.90272331px;font-style:normal;font-variant:normal;font-weight:normal;font-stretch:normal;line-height:125%;letter-spacing:0px;word-spacing:0px;fill:#333333;fill-opacity:1;stroke:none;font-family:Arial Narrow;-inkscape-font-specification:Arial Narrow"
       d="m 32.58427,1032.4184 c 0,-3.1835 0,-6.3671 0,-9.5506 1.685393,0 3.370787,0 5.05618,0 0.503123,2.0121 -2.224124,0.7939 -3.403466,1.1236 -0.875592,-0.085 -1.056173,3.5082 0.443305,2.809 1.464491,-0.6884 3.789242,0.9744 1.425942,1.1236 -1.889114,-0.3603 -2.904248,0.1533 -2.398361,2.1879 -0.212626,1.0489 0.692921,2.8477 -1.1236,2.3065 z"
       id="path3693"
       inkscape:connector-curvature="0" />
    <path
       style="font-size:22.90272331px;font-style:normal;font-variant:normal;font-weight:normal;font-stretch:normal;line-height:125%;letter-spacing:0px;word-spacing:0px;fill:#333333;fill-opacity:1;stroke:none;font-family:Arial Narrow;-inkscape-font-specification:Arial Narrow"
       d="m 38.34607,1027.824 c -1.103379,-5.4689 7.386826,-6.512 7.194907,-0.8319 1.171742,6.2765 -7.321478,7.6714 -7.194907,0.8319 z m 1.03034,0.019 c -0.68413,5.102 6.651651,3.9728 5.140313,-0.7351 -0.229441,-4.6933 -5.736119,-3.6709 -5.140313,0.7351 z"
       id="path3695"
       inkscape:connector-curvature="0" />
    <path
       style="font-size:22.90272331px;font-style:normal;font-variant:normal;font-weight:normal;font-stretch:normal;line-height:125%;letter-spacing:0px;word-spacing:0px;fill:#333333;fill-opacity:1;stroke:none;font-family:Arial Narrow;-inkscape-font-specification:Arial Narrow"
       d="m 46.56367,1027.824 c -1.103378,-5.4689 7.386825,-6.512 7.194905,-0.8319 1.171749,6.2765 -7.321488,7.6714 -7.194905,0.8319 z m 1.03034,0.019 c -0.684117,5.102 6.65164,3.9728 5.140313,-0.7351 -0.229445,-4.6933 -5.736113,-3.6709 -5.140313,0.7351 z"
       id="path3697"
       inkscape:connector-curvature="0" />
    <path
       style="font-size:22.90272331px;font-style:normal;font-variant:normal;font-weight:normal;font-stretch:normal;line-height:125%;letter-spacing:0px;word-spacing:0px;fill:#333333;fill-opacity:1;stroke:none;font-family:Arial Narrow;-inkscape-font-specification:Arial Narrow"
       d="m 55.05618,1032.4184 c 0,-3.1835 0,-6.3671 0,-9.5506 2.490835,-0.069 6.06148,-0.3356 6.418158,3.0296 1.107825,3.4324 -1.236819,7.417 -5.067796,6.521 -0.450121,0 -0.900241,0 -1.350362,0 z m 1.1236,-1.1236 c 3.614692,0.9688 5.426879,-2.986 3.96533,-5.9895 -0.879657,-1.8166 -5.046116,-2.1699 -3.96533,0.6309 0,1.7862 0,3.5724 0,5.3586 z"
       id="path3699"
       inkscape:connector-curvature="0" />
    <path
       style="font-size:22.90272331px;font-style:normal;font-variant:normal;font-weight:normal;font-stretch:normal;line-height:125%;letter-spacing:0px;word-spacing:0px;fill:#333333;fill-opacity:1;stroke:none;font-family:Arial Narrow;-inkscape-font-specification:Arial Narrow"
       d="m 66.29213,1032.4184 c 0.01417,-3.1835 0.02833,-6.3671 0.0425,-9.5506 1.685393,0 3.370787,0 5.05618,0 0.503123,2.0121 -2.224124,0.794 -3.403466,1.1237 -0.875581,-0.085 -1.056192,3.5081 0.443305,2.8089 1.464491,-0.6884 3.789242,0.9744 1.425942,1.1236 -1.889114,-0.3603 -2.904248,0.1533 -2.398361,2.1879 -0.203585,1.0872 0.689175,2.8519 -1.1661,2.3065 z"
       id="path3701"
       inkscape:connector-curvature="0" />
    <path
       style="font-size:22.90272331px;font-style:normal;font-variant:normal;font-weight:normal;font-stretch:normal;line-height:125%;letter-spacing:0px;word-spacing:0px;fill:#333333;fill-opacity:1;stroke:none;font-family:Arial Narrow;-inkscape-font-specification:Arial Narrow"
       d="m 71.95265,1032.4184 c 0.93633,-3.1835 1.87266,-6.3671 2.80899,-9.5506 1.870182,-0.4827 1.421488,2.1337 2.083937,3.2652 0.616214,2.0951 1.232429,4.1903 1.848643,6.2854 -1.882503,0.4861 -1.36698,-2.149 -2.000532,-3.2885 -0.45675,-1.7129 -0.913499,-3.4257 -1.370248,-5.1385 -0.756603,2.809 -1.513207,5.618 -2.26981,8.427 -0.366993,0 -0.733987,0 -1.10098,0 z"
       id="path3703"
       inkscape:connector-curvature="0" />
    <path
       style="font-size:22.90272331px;font-style:normal;font-variant:normal;font-weight:normal;font-stretch:normal;line-height:125%;letter-spacing:0px;word-spacing:0px;fill:#333333;fill-opacity:1;stroke:none;font-family:Arial Narrow;-inkscape-font-specification:Arial Narrow"
       d="m 85.03448,1029.0805 c 3.298452,1.9171 -4.694483,5.8328 -5.19883,1.2314 -2.176707,-3.385 1.558808,-9.9195 5.335858,-6.3071 1.631113,2.534 -0.797582,1.987 -1.566711,0.1007 -5.613281,-1.2396 -3.083737,11.2162 1.130468,6.0061 l 0.174147,-0.478 0.125068,-0.5531 z"
       id="path3705"
       inkscape:connector-curvature="0" />
    <path
       style="font-size:22.90272331px;font-style:normal;font-variant:normal;font-weight:normal;font-stretch:normal;line-height:125%;letter-spacing:0px;word-spacing:0px;fill:#333333;fill-opacity:1;stroke:none;font-family:Arial Narrow;-inkscape-font-specification:Arial Narrow"
       d="m 89.32584,1032.4184 c 0,-2.809 0,-5.618 0,-8.427 -1.151477,0.2636 -4.085468,-0.063 -2.322781,-1.127 2.085124,0 4.170247,0 6.255371,0 0.798496,2.2714 -2.737554,0.2083 -2.80899,1.6098 0,2.6469 0,5.2939 0,7.9408 -0.374533,0 -0.749067,0 -1.1236,0 z"
       id="path3707"
       inkscape:connector-curvature="0" />
    <path
       style="font-size:22.90272331px;font-style:normal;font-variant:normal;font-weight:normal;font-stretch:normal;line-height:125%;letter-spacing:0px;word-spacing:0px;fill:#333333;fill-opacity:1;stroke:none;font-family:Arial Narrow;-inkscape-font-specification:Arial Narrow"
       d="m 93.97093,1029.3506 c 1.396542,-0.032 2.879253,4.0033 4.921609,1.0846 -0.02171,-2.6651 -8.082318,-3.9463 -3.061965,-7.3153 2.74604,-2.285 5.019146,4.5464 2.793368,1.8801 -2.237335,-3.2634 -5.311923,2.098 -1.088436,2.0179 6.589514,1.798 -2.040503,9.2442 -3.498801,3.0148 l -0.06578,-0.682 0,-10e-5 z"
       id="path3709"
       inkscape:connector-curvature="0" />
    <path
       style="font-size:22.90272331px;font-style:normal;font-variant:normal;font-weight:normal;font-stretch:normal;line-height:125%;letter-spacing:0px;word-spacing:0px;fill:#333333;fill-opacity:1;stroke:none;font-family:Arial Narrow;-inkscape-font-specification:Arial Narrow"
       d="m 77.00883,1028.4858 c 0.506413,2.0045 -2.197384,0.7989 -3.37079,1.1236 -0.608019,-2.0555 2.257908,-0.764 3.37079,-1.1236 z"
       id="path3713"
       inkscape:connector-curvature="0" />
    <path
       style="fill:none"
       d="m 61.797756,967.81158 c 1.503095,4.8e-4 3.510845,-0.50369 2.808989,1.70174 0.788784,1.67864 -2.746634,1.40752 -2.808989,0.62104 0,-0.77426 0,-1.54852 0,-2.32278 z"
       id="rect3719"
       inkscape:connector-curvature="0" />
    <path
       style="fill:none"
       d="m 61.797756,967.81158 c 1.503095,4.8e-4 3.510845,-0.50369 2.808989,1.70174 0.788784,1.67864 -2.746634,1.40752 -2.808989,0.62104 0,-0.77426 0,-1.54852 0,-2.32278 z"
       id="rect3723"
       inkscape:connector-curvature="0" />
  </g>
</svg>
