<?xml version="1.0" encoding="UTF-8" standalone="no"?>
<svg
   xmlns:dc="http://purl.org/dc/elements/1.1/"
   xmlns:cc="http://creativecommons.org/ns#"
   xmlns:rdf="http://www.w3.org/1999/02/22-rdf-syntax-ns#"
   xmlns:svg="http://www.w3.org/2000/svg"
   xmlns="http://www.w3.org/2000/svg"
   xmlns:sodipodi="http://sodipodi.sourceforge.net/DTD/sodipodi-0.dtd"
   xmlns:inkscape="http://www.inkscape.org/namespaces/inkscape"
   version="1.1"
   width="100"
   height="100"
   id="svg6584"
   inkscape:version="0.48.3.1 r9886"
   sodipodi:docname="scores.svg">
  <sodipodi:namedview
     pagecolor="#ffffff"
     bordercolor="#666666"
     borderopacity="1"
     objecttolerance="10"
     gridtolerance="10"
     guidetolerance="10"
     inkscape:pageopacity="0"
     inkscape:pageshadow="2"
     inkscape:window-width="640"
     inkscape:window-height="480"
     id="namedview7"
     showgrid="false"
     inkscape:zoom="2.36"
     inkscape:cx="50.825089"
     inkscape:cy="35.943451"
     inkscape:window-x="459"
     inkscape:window-y="232"
     inkscape:window-maximized="0"
     inkscape:current-layer="svg6584" />
  <defs
     id="defs6586" />
  <metadata
     id="metadata6589">
    <rdf:RDF>
      <cc:Work
         rdf:about="">
        <dc:format>image/svg+xml</dc:format>
        <dc:type
           rdf:resource="http://purl.org/dc/dcmitype/StillImage" />
        <dc:title></dc:title>
      </cc:Work>
    </rdf:RDF>
  </metadata>
  <g
     id="g3000">
    <path
       d="M 73.370478,22.63108 33.787144,43.4644 73.370478,64.29773 96.287145,52.70923 c 0,0 0,10.5034 0,15.7551 0,8.3334 8.333335,8.3334 8.333335,8.3334 l 0,-4.1666 c 0,0 -4.16667,-0.2383 -4.16667,-4.1668 0,-6.2499 0,-18.0989 0,-18.0989 l 12.5,-6.90103 z m -18.75,37.49995 0,8.3333 c 0,2.0697 1.354537,4.8438 4.166667,6.2501 l 14.583334,6.25 12.5,-6.25 c 2.812128,-1.4063 6.446382,-4.1898 6.249999,-6.2501 l 0,-8.3333 -18.749999,9.1146 z"
       id="path7442"
       style="color:#000000;fill:#000000;fill-opacity:1;stroke:none;stroke-width:2;marker:none;visibility:visible;display:inline;overflow:visible;enable-background:accumulate"
       inkscape:connector-curvature="0" />
    <g
       transform="matrix(-0.93511627,-0.05543371,-0.05543371,0.93511627,137.56875,53.749076)"
       id="g3028">
      <g
         transform="matrix(0.2822925,0.59030582,-0.59030582,0.2822925,112.41664,-45.739937)"
         id="g2995">
        <path
           d="M 34.90625,-28.9375 C 16.857911,-21.12517 3.730483,-1.1114997 3.0625,19.5 c 4.291983,-4.07828 9.985259,-6.40625 15.90625,-6.40625 5.340025,0 10.486038,1.919581 14.59375,5.28125 l 0,11.71875 4.03125,0 0,-11.71875 c 4.110271,-3.364229 9.282415,-5.28125 14.625,-5.28125 5.922271,0 11.615547,2.33053 15.90625,6.40625 C 67.450619,-1.359754 54.054462,-21.775237 36.28125,-28.9375 l 0,48.46875 -0.1875,0.3125 -0.5,0.53125 -0.5,-0.53125 -0.1875,-0.3125 0,-48.46875 z"
           transform="matrix(0.78145696,0,0,0.78145696,22.18543,29.162609)"
           id="path3018"
           inkscape:connector-curvature="0" />
        <path
           id="path3020"
           d="m 51.006,5.589 c 0.189,0.005 0.381,0.006 0.57,0.012 V 4.714 C 51.576,3.843 50.87,3.138 50,3.138 c -0.87,0 -1.576,0.706 -1.576,1.576 V 5.602 C 48.633,5.596 48.844,5.594 49.054,5.588 26.15,6 6.288,21.26 0,43.199 c 3.164,-2.458 7.029,-3.795 11.055,-3.795 4.649,0 9.123,1.839 12.481,5.055 C 24.04,27.925 34.583,11.852 49.08,5.587 49.387,5.579 49.692,5.567 50,5.567 c 0.326,0 0.649,0.012 0.974,0.021 14.253,5.776 24.986,22.167 25.494,38.87 3.357,-3.215 7.83,-5.055 12.479,-5.055 4.024,0 7.889,1.336 11.053,3.794 C 93.717,21.279 73.885,6.026 51.006,5.589 z"
           inkscape:connector-curvature="0" />
      </g>
    </g>
  </g>
</svg>
