<svg xmlns="http://www.w3.org/2000/svg" xmlns:xlink="http://www.w3.org/1999/xlink" version="1.1" id="Layer_1" x="0px" y="0px" width="100px" height="100px" viewBox="0 0 100 100" enable-background="new 0 0 100 100" xml:space="preserve">
<g>
	<g id="XMLID_1_">
		<g>
			<path d="M76.115,64.632c0,0.494-0.31,0.924-0.737,1.104L61.645,52.285l14.471-14.768V64.632z"/>
			<polygon points="72.219,65.827 28.893,65.827 41.158,53.482 50.479,63.31 50.677,63.135 50.851,63.303 60.058,53.902    "/>
			<path d="M26.605,34.547h48.316c0.202,0,0.399,0.052,0.567,0.142L50.988,59.914L26.605,34.547z M45.188,38.443     c-1.604,1.542-2.417,3.459-2.417,5.685c0,1.987,0.651,3.738,1.933,5.191c1.552,1.75,3.76,2.637,6.569,2.637     c1.201,0,2.375-0.194,3.491-0.583c1.115-0.389,2.173-0.961,3.126-1.701l0.126-0.102l-0.914-1.403l-0.387,0.277     c-0.626,0.441-1.24,0.787-1.831,1.032l-0.109-1.356c1.137-0.07,2.156-0.638,3.045-1.681c0.943-1.11,1.42-2.459,1.42-4.01     c0-1.969-0.756-3.57-2.25-4.756c-1.4-1.123-3.198-1.695-5.328-1.695C49.044,35.978,46.865,36.806,45.188,38.443z"/>
			<path d="M50.391,46.301c-0.352,0-0.615-0.126-0.806-0.381c-0.202-0.271-0.303-0.632-0.303-1.081c0-0.77,0.243-1.587,0.728-2.418     c0.469-0.815,1.007-1.211,1.638-1.211c0.312,0,0.558,0.098,0.737,0.299c0.184,0.214,0.272,0.466,0.272,0.781     c0,0.591-0.225,1.433-0.667,2.489C51.561,45.788,51.023,46.301,50.391,46.301z"/>
			<path d="M51.399,50.161c-1.801,0-3.354-0.493-4.608-1.471c-1.403-1.104-2.111-2.617-2.111-4.5c0-1.703,0.61-3.176,1.81-4.391     c1.337-1.349,3.13-2.03,5.339-2.03c1.204,0,2.299,0.25,3.257,0.741c1.529,0.773,2.271,2.022,2.271,3.8     c0,1.193-0.281,2.165-0.832,2.881c-0.541,0.706-1.073,1.057-1.593,1.057c-0.236,0-0.398-0.067-0.501-0.197     c-0.112-0.144-0.167-0.298-0.167-0.46c0-0.112,0.024-0.251,0.062-0.405c0.047-0.168,0.118-0.429,0.214-0.777l1.348-4.565h-2.255     l-0.251,0.889c-0.116-0.219-0.263-0.423-0.449-0.606c-0.418-0.418-1.007-0.634-1.753-0.634c-1.243,0-2.303,0.556-3.157,1.647     c-0.841,1.082-1.264,2.262-1.264,3.503c0,1.081,0.285,1.939,0.846,2.548c0.573,0.613,1.29,0.926,2.149,0.926     c0.835,0,1.558-0.276,2.154-0.817c0.202-0.181,0.394-0.407,0.573-0.664c0.06,0.317,0.233,0.619,0.514,0.917     c0.364,0.377,0.883,0.574,1.539,0.574c0.084,0,0.167,0,0.242-0.007l0.109,1.356C53.811,49.928,52.642,50.161,51.399,50.161z"/>
			<path d="M39.589,51.829L25.88,65.623c-0.323-0.207-0.533-0.579-0.533-0.99V36.8L39.589,51.829z"/>
		</g>
	</g>
</g>
</svg>