<?xml version="1.0" encoding="UTF-8" standalone="no"?>
<svg
   xmlns:dc="http://purl.org/dc/elements/1.1/"
   xmlns:cc="http://creativecommons.org/ns#"
   xmlns:rdf="http://www.w3.org/1999/02/22-rdf-syntax-ns#"
   xmlns:svg="http://www.w3.org/2000/svg"
   xmlns="http://www.w3.org/2000/svg"
   xmlns:sodipodi="http://sodipodi.sourceforge.net/DTD/sodipodi-0.dtd"
   xmlns:inkscape="http://www.inkscape.org/namespaces/inkscape"
   version="1.1"
   id="Layer_1"
   x="0px"
   y="0px"
   width="100px"
   height="100px"
   viewBox="5.0 -10.0 100.0 135.0"
   enable-background="new 0 0 100 100"
   xml:space="preserve"
   inkscape:version="0.48.4 r9939"
   sodipodi:docname="prescription.svg"><metadata
     id="metadata15"><rdf:RDF><cc:Work
         rdf:about=""><dc:format>image/svg+xml</dc:format><dc:type
           rdf:resource="http://purl.org/dc/dcmitype/StillImage" /></cc:Work></rdf:RDF></metadata><defs
     id="defs13" /><sodipodi:namedview
     pagecolor="#ffffff"
     bordercolor="#666666"
     borderopacity="1"
     objecttolerance="10"
     gridtolerance="10"
     guidetolerance="10"
     inkscape:pageopacity="0"
     inkscape:pageshadow="2"
     inkscape:window-width="640"
     inkscape:window-height="480"
     id="namedview11"
     showgrid="false"
     inkscape:zoom="2.36"
     inkscape:cx="83.898305"
     inkscape:cy="16.101695"
     inkscape:window-x="0"
     inkscape:window-y="0"
     inkscape:window-maximized="0"
     inkscape:current-layer="Layer_1" /><rect
     fill="none"
     width="100"
     height="100"
     id="rect3" /><path
     d="m 15.88821,83.2498 h 50.82721 c 0.89179,0 1.610009,0.724205 1.610009,1.610009 0,0.890593 -0.718219,1.610009 -1.610009,1.610009 H 15.88821 c -0.885804,0 -1.610009,-0.719416 -1.610009,-1.610009 0,-0.884607 0.724205,-1.610009 1.610009,-1.610009 z m 0,-5.403406 h 31.138415 c 0.894183,0 1.612403,-0.71822 1.612403,-1.610009 0,-0.890593 -0.71822,-1.614797 -1.612403,-1.614797 H 15.88821 c -0.885804,0 -1.610009,0.723007 -1.610009,1.614797 0,0.891789 0.724205,1.610009 1.610009,1.610009 z M 77.604828,57.342419 v 34.944979 c 0,0.810391 -0.658368,1.471153 -1.471154,1.471153 H 6.4711533 C 5.658368,93.759748 5,93.097789 5,92.287398 V 39.917213 C 5,39.106821 5.658368,38.446059 6.4711533,38.446059 H 76.132477 c 0.813983,0 1.471154,0.660762 1.471154,1.471154 v 8.312195 L 105.98528,19.847761 c 0.83553,-0.83912 2.01221,-1.070148 3.07518,-0.787648 0.63442,-0.603305 1.63275,-0.603305 2.2564,0.01796 0.62126,0.626048 0.62126,1.626767 0.012,2.252815 0.27532,1.064162 0.0431,2.236058 -0.78764,3.069192 L 77.604828,57.342419 z m -2.943504,2.94111 -15.240622,15.240621 c -0.629639,0.632034 -1.454395,0.94805 -2.27915,0.94805 -0.260953,0 -0.529089,-0.09217 -0.784057,-0.161599 l -1.064162,1.064162 c -0.316016,0.317214 -0.724205,0.471631 -1.140772,0.471631 -0.408188,0 -0.824756,-0.154417 -1.141969,-0.471631 -0.62964,-0.632033 -0.62964,-1.649511 0,-2.275559 l 1.067753,-1.064162 c -0.275318,-1.064163 -0.04309,-2.236058 0.787648,-3.064404 L 74.662521,51.172912 V 41.389563 H 7.9435037 V 90.816244 H 74.661324 V 60.283529 z M 112.26132,27.459692 c -0.62964,-0.632033 -1.65071,-0.632033 -2.27915,0 L 85.88231,51.558357 c -0.628443,0.626048 -0.628443,1.649511 0,2.276756 0.313622,0.316017 0.73019,0.471631 1.138378,0.471631 0.417764,0 0.824755,-0.154417 1.138378,-0.471631 L 112.26132,29.736449 c 0.62964,-0.633231 0.62964,-1.650709 0,-2.276757 z M 32.045759,60.427173 h 6.311954 v 6.317939 c 0,1.626767 1.316736,2.943503 2.943504,2.943503 1.624373,0 2.943503,-1.316736 2.943503,-2.943503 v -6.317939 h 6.31794 c 1.624373,0 2.943503,-1.315539 2.943503,-2.94111 0,-1.626768 -1.31913,-2.943504 -2.943503,-2.943504 h -6.31794 v -6.311954 c 0,-1.626767 -1.31913,-2.943503 -2.943503,-2.943503 -1.626768,0 -2.943504,1.316736 -2.943504,2.943503 v 6.311954 h -6.311954 c -1.626767,0 -2.943503,1.316736 -2.943503,2.943504 0,1.625571 1.315539,2.94111 2.943503,2.94111 z"
     id="path5"
     inkscape:connector-curvature="0" /></svg>