<svg xmlns="http://www.w3.org/2000/svg" xmlns:xlink="http://www.w3.org/1999/xlink" version="1.1" id="Layer_1" x="0px" y="0px" viewBox="5.0 -10.0 100.0 135.0" enable-background="new 0 0 100 100" xml:space="preserve" height="100px" width="100px">
<g>
	<g>
		<path fill="#000000" d="M90.6,87.2H9.4c-2.2,0-4-1.8-4-4V16.9c0-2.2,1.8-4,4-4h81.2c2.2,0,4,1.8,4,4v66.2    C94.6,85.3,92.8,87.2,90.6,87.2z M13.4,79.1h73.1V20.9H13.4V79.1z"/>
	</g>
	<g>
		<path fill="#000000" d="M77.5,52.2H22.5c-1.1,0-2-0.9-2-2c0-1.1,0.9-2,2-2h55.1c1.1,0,2,0.9,2,2C79.6,51.3,78.6,52.2,77.5,52.2z"/>
	</g>
	<g>
		<path fill="#000000" d="M77.5,34.8H22.5c-1.1,0-2-0.9-2-2c0-1.1,0.9-2,2-2h55.1c1.1,0,2,0.9,2,2C79.6,33.9,78.6,34.8,77.5,34.8z"/>
	</g>
	<g>
		<g>
			<path fill="#000000" d="M77.5,68.9H65.9c-1.1,0-2-0.9-2-2s0.9-2,2-2h11.6c1.1,0,2,0.9,2,2S78.6,68.9,77.5,68.9z"/>
		</g>
		<g>
			<path fill="#000000" d="M71.7,74.7c-1.1,0-2-0.9-2-2V61.1c0-1.1,0.9-2,2-2c1.1,0,2,0.9,2,2v11.6C73.8,73.8,72.8,74.7,71.7,74.7z"/>
		</g>
	</g>
	<g>
		<path fill="#000000" d="M23.6,71.3c-0.4,0-0.8-0.1-1.2-0.4c-0.9-0.7-1.1-1.9-0.4-2.8c1.8-2.4,4.1-4.4,6.8-5.7    c0.5-0.3,1.1-0.3,1.6-0.1c0.5,0.2,1,0.6,1.2,1.2l0.8,2c0.6-0.2,1.1-0.5,1.6-0.8l0.3-0.2c0.8-0.5,1.7-1.1,3-1.2    c1.6-0.1,2.9,0.6,3.9,1.2c0.5,0.3,1,0.6,1.4,0.7c0.5,0.1,1.1,0,1.8-0.2c0.6-0.1,1.3-0.3,2.1-0.3c1.8-0.1,3.7,0.6,5,1.9    c0.8,0.8,0.8,2,0.1,2.9c-0.8,0.8-2,0.8-2.9,0.1c-0.5-0.5-1.3-0.8-2.1-0.8c-0.4,0-0.9,0.1-1.4,0.2c-1,0.2-2.2,0.5-3.4,0.2    c-1.1-0.2-1.9-0.7-2.7-1.2c-0.6-0.3-1.2-0.7-1.5-0.7c-0.3,0-0.7,0.3-1.2,0.6l-0.4,0.3c-1.1,0.7-2.2,1.2-3.4,1.5    c-0.3,0.1-1.4,0.4-2.4-0.2c-0.9-0.5-1.3-1.4-1.4-1.7l-0.2-0.6c-1.3,0.9-2.5,2.1-3.4,3.4C24.9,71,24.2,71.3,23.6,71.3z"/>
	</g>
</g>
<text x="0.0" y="117.5" font-size="5.0" font-weight="bold" font-family="Helvetica Neue, Helvetica, Arial-Unicode, Arial, Sans-serif" fill="#000000">Created by Andrew Vine</text><text x="0.0" y="122.5" font-size="5.0" font-weight="bold" font-family="Helvetica Neue, Helvetica, Arial-Unicode, Arial, Sans-serif" fill="#000000">from the Noun Project</text></svg>