<svg xmlns="http://www.w3.org/2000/svg" xmlns:xlink="http://www.w3.org/1999/xlink" version="1.1" id="Layer_1" x="0px" y="0px" width="100px" height="100px" viewBox="0 0 100 100" enable-background="new 0 0 100 100" xml:space="preserve">
<path fill-rule="evenodd" clip-rule="evenodd" d="M80.925,94.938c0,2.8,2.276,5.062,5.068,5.062h6.339  c2.798,0,5.068-2.262,5.068-5.062V44.206c0-2.799-2.271-5.062-5.068-5.062h-6.339c-2.792,0-5.068,2.263-5.068,5.062V94.938z"/>
<path fill-rule="evenodd" clip-rule="evenodd" d="M47.088,57.2c2.443-1.015,4.757-2.466,6.867-4.277  c0.393-0.349,0.763-0.696,1.132-1.045c2.276-2.233,4.061-4.801,5.33-7.57c0,0-19.855-9.456-23.93-11.69  c0.26-0.261,0.245-24.147,0.245-24.147c-6.2,0-11.893,2.204-16.475,5.685c-2.176,1.885-3.959,4.061-5.329,6.425  c-2.459,3.945-3.865,8.572-3.865,13.561c0,14.184,11.493,25.686,25.669,25.686c0.516,0,1.03-0.016,1.545-0.059  c3.185-0.174,6.209-0.942,8.978-2.189L47.088,57.2z M36.732,68.295c18.869,0,34.155-15.285,34.155-34.154  C70.888,15.287,55.602,0,36.732,0C17.871,0,2.6,15.287,2.6,34.141C2.6,53.01,17.871,68.295,36.732,68.295z"/>
<path fill-rule="evenodd" clip-rule="evenodd" d="M56.406,74.271v20.667c0,2.8,2.276,5.062,5.084,5.062h6.324  c2.791,0,5.068-2.262,5.068-5.062V74.271c0-2.8-2.277-5.076-5.068-5.076H61.49C58.683,69.195,56.406,71.472,56.406,74.271z"/>
<path fill-rule="evenodd" clip-rule="evenodd" d="M31.896,81.885v13.054c0,2.8,2.263,5.062,5.069,5.062h6.33  c2.792,0,5.069-2.262,5.069-5.062V81.885c0-2.799-2.277-5.09-5.069-5.09h-6.33C34.159,76.795,31.896,79.086,31.896,81.885z"/>
</svg>