<svg xmlns="http://www.w3.org/2000/svg" xmlns:xlink="http://www.w3.org/1999/xlink" version="1.1" id="Layer_1" x="0px" y="0px" width="100px" height="100px" viewBox="0 0 100 100" enable-background="new 0 0 100 100" xml:space="preserve">
<path d="M70.83496,70.0918c2.1123-2.17383,3.25586-5.11035,3.16992-8.14063l-1.07617-37.84668  C72.72949,17.08594,66.98242,11.5,59.96094,11.5H49.14258H38.32422c-7.02148,0-12.76855,5.58594-12.96777,12.60449L24.2793,61.95117  c-0.08594,3.03027,1.05762,5.9668,3.16992,8.14063c0.76172,0.7832,1.62891,1.43945,2.56445,1.96387L25.10547,90h7.25781  l1.86914-6.83301h29.82031L65.92188,90h7.25781l-4.9082-17.94531C69.20703,71.53027,70.07324,70.875,70.83496,70.0918z   M62.81445,67.40625c-3.10254,0-5.61914-2.51563-5.61914-5.61914s2.5166-5.61719,5.61914-5.61719  c3.10352,0,5.61816,2.51367,5.61816,5.61719S65.91797,67.40625,62.81445,67.40625z M42.02539,17.13574  c0-1.06201,0.86133-1.92285,1.92285-1.92285h10.5752c1.06152,0,1.92285,0.86084,1.92285,1.92285v0.1543  c0,1.06201-0.86133,1.92285-1.92285,1.92285h-10.5752c-1.06152,0-1.92285-0.86084-1.92285-1.92285V17.13574z M30.99805,26.76807  c0.08398-2.14648,1.84863-3.84326,3.99707-3.84326h28.85742c2.14844,0,3.91309,1.69678,3.99707,3.84375l0.51465,13.16406  c0.04297,1.08691-0.35938,2.14453-1.11328,2.92871s-1.79492,1.22754-2.88281,1.22754H34.47949  c-1.08887,0-2.12988-0.44336-2.88379-1.22754s-1.15625-1.8418-1.11328-2.9292L30.99805,26.76807z M35.46973,56.16992  c3.10352,0,5.61914,2.51367,5.61914,5.61719s-2.51563,5.61914-5.61914,5.61914s-5.61816-2.51563-5.61816-5.61914  S32.36621,56.16992,35.46973,56.16992z M35.32617,79.16699l1.55176-5.6748h24.5293l1.55176,5.6748H35.32617z"/>
</svg>