<svg xmlns="http://www.w3.org/2000/svg" xmlns:xlink="http://www.w3.org/1999/xlink" version="1.1" id="Layer_1" x="0px" y="0px" width="100px" height="100px" viewBox="0 0 100 100" enable-background="new 0 0 100 100" xml:space="preserve">
<g>
	<path d="M96.861,79.307c0,8.665-7.031,15.69-15.689,15.69c-8.661,0-15.688-7.025-15.688-15.69s7.027-15.69,15.688-15.69   C89.83,63.616,96.861,70.642,96.861,79.307z M83.368,68.688h-4.355v15.114l-5.397-3.835l-2.525,3.552l10.099,7.166l9.867-6.937   l-2.513-3.565l-5.175,3.641C83.368,83.821,83.368,68.688,83.368,68.688z"/>
</g>
<path d="M100,45.497l-9.931-9.929l-0.089,0.055l-6.345,6.347L58.008,16.365l6.349-6.349l0.072-0.071L54.484,0L0,54.488L10.229,64.72  l6.345-6.351l25.626,25.607l-6.347,6.347v0.004l9.661,9.658l17.157-17.158c-0.214-1.141-0.328-2.317-0.328-3.521  c0-10.398,8.432-18.828,18.828-18.828c1.2,0,2.379,0.112,3.521,0.329l0,0L100,45.497z M51.292,74.313L25.668,48.706l23.424-23.428  L74.72,50.886L51.292,74.313z"/>
</svg>