<svg xmlns="http://www.w3.org/2000/svg" xmlns:xlink="http://www.w3.org/1999/xlink" version="1.1" x="0px" y="0px" width="100px" height="100px" viewBox="0 0 100 100" enable-background="new 0 0 100 100" xml:space="preserve">
<g id="Captions">
</g>
<g id="Your_Icon">
	<path d="M78.51,52.484c0-10.06-8.184-18.243-18.245-18.243c-5.858,0-11.066,2.786-14.406,7.091   c-3.189-2.771-7.34-4.463-11.887-4.463c-8.531,0-15.778,5.879-17.675,13.985C7.248,51.881,0.193,59.578,0.193,68.896   c0,10.014,8.146,18.16,18.16,18.16h41.041c8.173,0,14.823-6.648,14.823-14.822c0-2.314-0.549-4.5-1.498-6.453   C76.273,62.449,78.51,57.729,78.51,52.484z M69.132,72.234c0,5.369-4.368,9.736-9.737,9.736H18.354   c-7.209,0-13.074-5.863-13.074-13.074c0-7.209,5.865-13.075,13.074-13.075c2.134,0,4.169,0.498,6.045,1.478   c1.245,0.651,2.781,0.169,3.432-1.076c0.651-1.244,0.169-2.781-1.076-3.43c-1.636-0.855-3.405-1.451-5.228-1.775   c1.7-5.31,6.662-9.062,12.445-9.062c3.642,0,6.938,1.5,9.311,3.91c2.325,2.361,3.764,5.597,3.764,9.164   c0,0.645-0.047,1.293-0.14,1.924c-0.007,0.045-0.002,0.09-0.007,0.135c-0.011,0.119-0.022,0.239-0.016,0.357   c0.004,0.1,0.025,0.195,0.041,0.291c0.011,0.065,0.015,0.131,0.03,0.194c0.024,0.098,0.062,0.192,0.098,0.284   c0.022,0.062,0.039,0.123,0.066,0.18c0.039,0.086,0.091,0.164,0.141,0.246c0.037,0.06,0.067,0.122,0.108,0.18   c0.062,0.084,0.136,0.16,0.208,0.236c0.04,0.043,0.075,0.09,0.118,0.13c0.127,0.117,0.264,0.224,0.414,0.313   c1.42,0.873,2.646,1.992,3.646,3.33c0.007,0.01,0.017,0.016,0.024,0.026c0.117,0.151,0.246,0.29,0.39,0.408   c0.021,0.019,0.045,0.028,0.066,0.046c0.122,0.095,0.251,0.18,0.388,0.25c0.061,0.031,0.124,0.053,0.187,0.08   c0.104,0.043,0.208,0.083,0.316,0.113c0.071,0.02,0.142,0.032,0.214,0.045c0.107,0.02,0.214,0.031,0.322,0.037   c0.044,0.002,0.088,0.016,0.132,0.016c0.04,0,0.08-0.008,0.12-0.01c0.046-0.002,0.092-0.006,0.137-0.01   c0.02-0.003,0.038-0.008,0.058-0.011c0.1-0.013,0.198-0.028,0.296-0.052c0.033-0.01,0.066-0.015,0.099-0.025   c0.161-0.047,0.32-0.107,0.473-0.187c1.375-0.704,2.862-1.062,4.422-1.062c2.165,0,4.159,0.719,5.778,1.918   c1.479,1.096,2.635,2.596,3.304,4.34C68.895,69.836,69.132,71.008,69.132,72.234z M59.395,57.41c-1.661,0-3.315,0.289-4.877,0.831   c-0.743-0.794-1.55-1.524-2.424-2.173c0.02-0.346,0.038-0.693,0.038-1.039c0-3.486-1.005-6.735-2.716-9.504   c2.298-3.57,6.298-5.944,10.849-5.944c7.116,0,12.904,5.789,12.904,12.903c0,3.481-1.391,6.639-3.639,8.963   C66.876,58.951,63.315,57.41,59.395,57.41z"/>
	<path d="M60.265,30.025c1.475,0,2.67-1.196,2.67-2.67V15.613c0-1.474-1.195-2.67-2.67-2.67s-2.67,1.196-2.67,2.67v11.742   C57.595,28.829,58.79,30.025,60.265,30.025z"/>
	<path d="M40.606,36.603c0.521,0.521,1.205,0.782,1.888,0.782s1.367-0.261,1.888-0.782c1.043-1.043,1.043-2.733,0-3.776   l-8.302-8.302c-1.042-1.043-2.734-1.043-3.776,0c-1.043,1.043-1.043,2.732,0,3.775L40.606,36.603z"/>
	<path d="M79.923,68.369c-1.043-1.043-2.734-1.043-3.777,0c-1.041,1.043-1.041,2.734,0.002,3.777l8.302,8.299   c0.521,0.521,1.205,0.783,1.888,0.783c0.684,0,1.368-0.262,1.89-0.783c1.042-1.043,1.042-2.734-0.001-3.775L79.923,68.369z"/>
	<path d="M97.137,49.815L97.137,49.815l-11.739,0.002c-1.476,0-2.67,1.196-2.67,2.67c0,1.475,1.195,2.671,2.67,2.671l0,0   l11.739-0.003c1.476,0,2.67-1.196,2.67-2.671S98.611,49.815,97.137,49.815z"/>
	<path d="M78.037,37.386c0.685,0,1.368-0.261,1.89-0.782l8.3-8.304c1.042-1.043,1.042-2.734-0.001-3.775   c-1.043-1.043-2.734-1.043-3.777,0l-8.3,8.304c-1.042,1.043-1.042,2.734,0.001,3.775C76.671,37.125,77.354,37.386,78.037,37.386z"/>
</g>
</svg>